<?xml version="1.0" encoding="utf-8"?>
<!-- Generator: Adobe Illustrator 15.0.0, SVG Export Plug-In . SVG Version: 6.00 Build 0)  -->
<!DOCTYPE svg PUBLIC "-//W3C//DTD SVG 1.1//EN" "http://www.w3.org/Graphics/SVG/1.1/DTD/svg11.dtd">
<svg version="1.1" id="Layer_1" xmlns="http://www.w3.org/2000/svg" xmlns:xlink="http://www.w3.org/1999/xlink" x="0px" y="0px"
	 width="400px" height="400px" viewBox="0 0 400 400" enable-background="new 0 0 400 400" xml:space="preserve">
<circle fill="#FEDA00" stroke="#000000" stroke-width="3" stroke-miterlimit="10" cx="188.89" cy="182.5" r="120.5"/>
<g>
	<path d="M156.398,284.064c0.576-2.149,1.426-3.689,2.551-4.617c1.125-0.93,2.405-1.201,3.842-0.816
		c1.438,0.385,2.411,1.262,2.918,2.629c0.509,1.367,0.475,3.125-0.101,5.275c-0.287,1.068-0.648,1.984-1.083,2.75
		c-0.436,0.765-0.932,1.375-1.489,1.832c-0.557,0.455-1.157,0.756-1.801,0.898c-0.644,0.144-1.315,0.121-2.016-0.066
		c-1.437-0.385-2.409-1.262-2.918-2.629C155.792,287.953,155.824,286.201,156.398,284.064z M159.197,284.815
		c-0.171,0.638-0.295,1.227-0.374,1.765c-0.079,0.539-0.102,1.016-0.069,1.434c0.033,0.417,0.139,0.761,0.315,1.032
		c0.178,0.271,0.438,0.453,0.782,0.546c0.344,0.092,0.658,0.064,0.941-0.084c0.283-0.147,0.546-0.393,0.789-0.736
		c0.244-0.342,0.466-0.767,0.667-1.271c0.202-0.506,0.388-1.078,0.559-1.717c0.171-0.639,0.297-1.23,0.377-1.773
		c0.08-0.546,0.101-1.027,0.062-1.445c-0.039-0.419-0.144-0.763-0.315-1.033c-0.171-0.27-0.428-0.45-0.772-0.543
		c-0.344-0.092-0.661-0.064-0.95,0.082c-0.289,0.146-0.553,0.391-0.79,0.736c-0.238,0.344-0.458,0.771-0.661,1.283
		C159.557,283.602,159.369,284.176,159.197,284.815z"/>
	<path d="M148.163,285.17c-0.399-0.008-0.821-0.003-1.267,0.018c-0.446,0.02-0.892,0.06-1.335,0.122s-0.878,0.144-1.303,0.241
		c-0.424,0.098-0.824,0.225-1.198,0.38l-1.817-0.796l5.308-12.104l2.603,1.142l-3.822,8.715c0.452-0.078,0.935-0.12,1.45-0.124
		c0.516-0.003,1.007,0.015,1.476,0.054L148.163,285.17z"/>
	<path d="M127.916,270.014c1.19-1.881,2.46-3.098,3.81-3.648c1.351-0.553,2.654-0.432,3.912,0.365
		c1.257,0.795,1.925,1.922,2.002,3.378c0.079,1.457-0.477,3.125-1.667,5.005c-0.591,0.935-1.209,1.703-1.853,2.303
		c-0.644,0.602-1.299,1.036-1.967,1.307c-0.667,0.27-1.33,0.377-1.987,0.322c-0.658-0.055-1.292-0.277-1.905-0.664
		c-1.257-0.797-1.924-1.922-2.003-3.379C126.18,273.545,126.732,271.883,127.916,270.014z M130.366,271.563
		c-0.354,0.558-0.648,1.083-0.884,1.574s-0.399,0.939-0.492,1.347c-0.092,0.408-0.094,0.768-0.006,1.08
		c0.088,0.312,0.283,0.562,0.584,0.754c0.3,0.189,0.609,0.257,0.923,0.199c0.315-0.056,0.639-0.212,0.973-0.467
		c0.334-0.254,0.673-0.594,1.016-1.016c0.343-0.423,0.691-0.914,1.045-1.472c0.354-0.56,0.65-1.087,0.889-1.582
		c0.238-0.496,0.401-0.95,0.488-1.361c0.088-0.411,0.09-0.771,0.006-1.079c-0.083-0.309-0.275-0.559-0.576-0.749
		c-0.3-0.19-0.611-0.258-0.931-0.204c-0.32,0.053-0.644,0.209-0.973,0.467c-0.33,0.258-0.667,0.601-1.014,1.029
		C131.069,270.512,130.719,271.004,130.366,271.563z"/>
	<path d="M119.736,268.623c-0.379-0.127-0.783-0.247-1.215-0.361c-0.432-0.113-0.869-0.207-1.311-0.279
		c-0.442-0.072-0.881-0.125-1.316-0.156c-0.435-0.033-0.854-0.031-1.257,0.007l-1.498-1.301l8.665-9.979l2.146,1.863l-6.24,7.186
		c0.456,0.059,0.929,0.162,1.421,0.312c0.493,0.15,0.957,0.312,1.394,0.49L119.736,268.623z"/>
	<path d="M104.862,248.139c1.691-1.447,3.263-2.234,4.716-2.365c1.453-0.129,2.663,0.371,3.63,1.502
		c0.966,1.13,1.273,2.402,0.919,3.818c-0.354,1.416-1.376,2.846-3.068,4.292c-0.84,0.72-1.657,1.271-2.449,1.655
		s-1.547,0.607-2.264,0.668c-0.717,0.062-1.382-0.031-1.994-0.276c-0.613-0.247-1.154-0.646-1.625-1.196
		c-0.967-1.13-1.273-2.402-0.919-3.818C102.164,251.003,103.18,249.576,104.862,248.139z M106.746,250.342
		c-0.502,0.43-0.938,0.844-1.308,1.244c-0.369,0.398-0.658,0.781-0.867,1.143c-0.209,0.361-0.316,0.705-0.324,1.029
		c-0.007,0.324,0.105,0.622,0.336,0.893c0.232,0.271,0.506,0.425,0.823,0.463c0.318,0.039,0.673-0.015,1.068-0.16
		c0.395-0.145,0.818-0.369,1.27-0.672c0.453-0.303,0.93-0.669,1.432-1.1c0.503-0.43,0.942-0.846,1.316-1.249
		c0.374-0.403,0.664-0.789,0.868-1.156c0.205-0.368,0.313-0.711,0.324-1.03c0.011-0.318-0.099-0.613-0.331-0.885
		c-0.231-0.27-0.507-0.428-0.829-0.471c-0.32-0.042-0.677,0.011-1.067,0.16c-0.39,0.15-0.813,0.379-1.271,0.686
		C107.729,249.543,107.248,249.912,106.746,250.342z"/>
	<path d="M97.461,244.422c-0.325-0.233-0.677-0.467-1.056-0.703c-0.378-0.236-0.769-0.453-1.17-0.652
		c-0.401-0.2-0.805-0.379-1.21-0.538s-0.807-0.28-1.204-0.362l-1.049-1.684l11.22-6.987l1.502,2.412l-8.078,5.031
		c0.417,0.188,0.839,0.429,1.266,0.716c0.427,0.289,0.823,0.582,1.188,0.879L97.461,244.422z"/>
	<path d="M89.312,220.447c2.044-0.878,3.78-1.162,5.206-0.854c1.426,0.308,2.432,1.146,3.019,2.513
		c0.587,1.366,0.501,2.673-0.257,3.92c-0.759,1.244-2.161,2.307-4.205,3.186c-1.017,0.436-1.96,0.72-2.831,0.852
		c-0.87,0.131-1.657,0.119-2.36-0.035c-0.703-0.154-1.311-0.44-1.822-0.857s-0.91-0.959-1.196-1.625
		c-0.587-1.367-0.5-2.673,0.258-3.918C85.884,222.38,87.279,221.321,89.312,220.447z M90.456,223.111
		c-0.607,0.262-1.147,0.527-1.619,0.799c-0.471,0.272-0.86,0.55-1.167,0.834c-0.307,0.284-0.512,0.579-0.615,0.887
		c-0.104,0.307-0.085,0.625,0.055,0.951c0.141,0.328,0.357,0.557,0.648,0.688c0.292,0.131,0.648,0.186,1.067,0.164
		c0.42-0.021,0.891-0.109,1.413-0.264c0.521-0.154,1.086-0.362,1.693-0.623c0.608-0.262,1.15-0.529,1.627-0.803
		c0.478-0.274,0.869-0.557,1.173-0.847c0.304-0.289,0.51-0.585,0.616-0.886c0.105-0.303,0.088-0.616-0.053-0.943
		c-0.14-0.327-0.357-0.559-0.651-0.695c-0.294-0.137-0.649-0.191-1.067-0.165c-0.417,0.026-0.89,0.119-1.417,0.276
		S91.064,222.851,90.456,223.111z"/>
	<path d="M83.351,214.676c-0.241-0.318-0.506-0.646-0.798-0.984c-0.292-0.338-0.599-0.662-0.923-0.973
		c-0.324-0.31-0.655-0.602-0.996-0.873c-0.34-0.273-0.687-0.508-1.04-0.705l-0.5-1.92l12.791-3.327l0.716,2.749l-9.21,2.396
		c0.342,0.306,0.674,0.659,0.995,1.062c0.322,0.403,0.613,0.8,0.872,1.192L83.351,214.676z"/>
	<path d="M82.697,189.356c2.213-0.232,3.955,0.011,5.225,0.728c1.271,0.717,1.983,1.815,2.139,3.295
		c0.155,1.479-0.314,2.702-1.409,3.666c-1.095,0.965-2.748,1.564-4.961,1.795c-1.1,0.115-2.085,0.107-2.956-0.025
		s-1.618-0.377-2.244-0.733c-0.625-0.356-1.121-0.81-1.485-1.359s-0.584-1.185-0.66-1.905c-0.154-1.48,0.315-2.702,1.41-3.666
		C78.849,190.186,80.496,189.586,82.697,189.356z M82.999,192.239c-0.657,0.069-1.251,0.163-1.783,0.283
		c-0.531,0.119-0.984,0.269-1.362,0.449c-0.377,0.18-0.661,0.401-0.851,0.665c-0.189,0.262-0.266,0.57-0.229,0.925
		c0.037,0.354,0.176,0.636,0.415,0.849c0.24,0.211,0.563,0.369,0.97,0.473c0.408,0.105,0.883,0.16,1.427,0.167
		s1.146-0.023,1.803-0.093c0.657-0.068,1.255-0.162,1.792-0.283c0.538-0.121,0.995-0.273,1.372-0.46
		c0.377-0.187,0.66-0.407,0.851-0.665c0.19-0.256,0.267-0.562,0.229-0.916c-0.037-0.354-0.175-0.639-0.416-0.857
		c-0.24-0.217-0.564-0.375-0.97-0.473c-0.407-0.099-0.885-0.15-1.436-0.157S83.656,192.17,82.999,192.239z"/>
	<path d="M78.708,182.103c-0.135-0.375-0.292-0.767-0.471-1.176c-0.18-0.409-0.377-0.809-0.595-1.201
		c-0.218-0.392-0.449-0.768-0.694-1.129c-0.244-0.361-0.506-0.688-0.786-0.98l0.089-1.981l13.204,0.595l-0.128,2.839l-9.507-0.428
		c0.236,0.392,0.449,0.828,0.637,1.307c0.189,0.48,0.349,0.945,0.481,1.397L78.708,182.103z"/>
	<path d="M85.542,157.745c2.183,0.43,3.776,1.175,4.779,2.234c1.002,1.059,1.36,2.319,1.073,3.779
		c-0.288,1.459-1.097,2.489-2.427,3.088c-1.33,0.601-3.086,0.685-5.269,0.254c-1.086-0.213-2.024-0.512-2.817-0.895
		c-0.793-0.382-1.436-0.837-1.929-1.362c-0.492-0.524-0.832-1.103-1.018-1.736c-0.187-0.633-0.21-1.305-0.07-2.016
		c0.288-1.46,1.097-2.489,2.426-3.089C81.621,157.403,83.371,157.317,85.542,157.745z M84.981,160.589
		c-0.648-0.128-1.244-0.213-1.786-0.255c-0.542-0.042-1.021-0.033-1.435,0.028c-0.414,0.062-0.75,0.189-1.009,0.385
		s-0.423,0.467-0.492,0.816c-0.069,0.35-0.02,0.661,0.147,0.933c0.167,0.273,0.429,0.519,0.788,0.739
		c0.358,0.219,0.796,0.413,1.314,0.58s1.101,0.314,1.75,0.442c0.649,0.128,1.248,0.214,1.797,0.257
		c0.549,0.043,1.031,0.031,1.445-0.036c0.415-0.067,0.751-0.195,1.009-0.384c0.258-0.188,0.421-0.458,0.49-0.807
		s0.021-0.664-0.145-0.942c-0.166-0.279-0.428-0.525-0.788-0.738c-0.359-0.213-0.801-0.404-1.326-0.573
		C86.216,160.865,85.63,160.717,84.981,160.589z"/>
	<path d="M83.871,149.636c-0.019-0.398-0.053-0.819-0.103-1.263c-0.05-0.444-0.121-0.885-0.213-1.324
		c-0.093-0.438-0.202-0.866-0.33-1.284c-0.126-0.417-0.28-0.807-0.461-1.169l0.671-1.867l12.438,4.472l-0.961,2.674l-8.956-3.22
		c0.11,0.445,0.185,0.925,0.223,1.438c0.038,0.514,0.054,1.006,0.047,1.477L83.871,149.636z"/>
	<path d="M97.64,128.362c1.957,1.061,3.255,2.246,3.898,3.556c0.642,1.31,0.609,2.619-0.1,3.927
		c-0.709,1.307-1.788,2.05-3.235,2.227s-3.15-0.265-5.106-1.325c-0.973-0.527-1.78-1.091-2.423-1.692
		c-0.643-0.602-1.122-1.226-1.436-1.874c-0.314-0.647-0.466-1.301-0.456-1.961c0.01-0.659,0.188-1.307,0.533-1.945
		c0.709-1.308,1.788-2.05,3.235-2.227C93.998,126.87,95.695,127.308,97.64,128.362z M96.259,130.911
		c-0.581-0.315-1.125-0.574-1.63-0.775c-0.505-0.201-0.964-0.334-1.378-0.399c-0.414-0.064-0.772-0.042-1.077,0.066
		c-0.305,0.11-0.543,0.322-0.712,0.635c-0.17,0.312-0.215,0.624-0.138,0.933c0.078,0.311,0.256,0.624,0.532,0.94
		c0.278,0.316,0.638,0.631,1.083,0.944c0.444,0.313,0.958,0.627,1.539,0.943c0.582,0.315,1.127,0.574,1.638,0.779
		c0.512,0.205,0.975,0.337,1.391,0.396c0.416,0.06,0.775,0.037,1.078-0.067c0.302-0.103,0.537-0.312,0.707-0.625
		c0.17-0.312,0.218-0.627,0.143-0.942c-0.076-0.315-0.253-0.628-0.533-0.94c-0.28-0.31-0.646-0.624-1.096-0.94
		C97.356,131.542,96.84,131.226,96.259,130.911z"/>
	<path d="M98.476,120.104c0.101-0.385,0.194-0.798,0.278-1.236c0.084-0.438,0.148-0.88,0.191-1.327
		c0.042-0.446,0.065-0.887,0.068-1.323c0.003-0.436-0.026-0.854-0.092-1.254l1.197-1.581l10.538,7.977l-1.715,2.266l-7.588-5.743
		c-0.027,0.458-0.1,0.937-0.217,1.439c-0.116,0.501-0.248,0.976-0.396,1.423L98.476,120.104z"/>
	<path d="M117.938,103.919c1.547,1.599,2.431,3.12,2.65,4.562c0.219,1.443-0.206,2.68-1.274,3.715
		c-1.068,1.035-2.32,1.42-3.755,1.153c-1.434-0.266-2.924-1.198-4.473-2.797c-0.769-0.794-1.37-1.575-1.803-2.342
		c-0.433-0.767-0.702-1.506-0.808-2.218c-0.105-0.712-0.054-1.381,0.154-2.007c0.208-0.625,0.572-1.191,1.093-1.695
		c1.069-1.034,2.32-1.418,3.755-1.153C114.913,101.402,116.399,102.33,117.938,103.919z M115.855,105.936
		c-0.46-0.475-0.901-0.884-1.322-1.229c-0.422-0.345-0.82-0.609-1.195-0.795c-0.374-0.185-0.724-0.272-1.047-0.259
		c-0.324,0.012-0.614,0.143-0.869,0.39c-0.256,0.248-0.393,0.531-0.412,0.85c-0.019,0.319,0.057,0.671,0.226,1.056
		c0.169,0.385,0.419,0.794,0.75,1.226c0.33,0.432,0.725,0.886,1.184,1.361c0.461,0.476,0.903,0.887,1.329,1.235
		c0.426,0.349,0.829,0.614,1.208,0.795c0.379,0.181,0.729,0.268,1.048,0.26c0.32-0.008,0.607-0.136,0.863-0.384
		c0.255-0.248,0.395-0.533,0.418-0.856c0.024-0.323-0.052-0.676-0.226-1.056s-0.428-0.789-0.762-1.226
		C116.711,106.866,116.314,106.411,115.855,105.936z"/>
	<path d="M121.121,96.28c0.21-0.34,0.42-0.706,0.629-1.101c0.209-0.395,0.4-0.798,0.572-1.212c0.171-0.414,0.324-0.829,0.454-1.245
		c0.131-0.416,0.225-0.824,0.281-1.225l1.608-1.16l7.73,10.721l-2.305,1.663L124.525,95c-0.161,0.43-0.371,0.867-0.63,1.312
		s-0.524,0.86-0.795,1.244L121.121,96.28z"/>
	<path d="M144.496,86.519c1.015,1.98,1.416,3.692,1.206,5.136s-0.978,2.504-2.302,3.183c-1.324,0.678-2.634,0.681-3.928,0.008
		c-1.294-0.672-2.449-2-3.463-3.979c-0.504-0.984-0.852-1.906-1.042-2.767c-0.19-0.859-0.232-1.645-0.125-2.356
		c0.107-0.712,0.351-1.337,0.732-1.875c0.382-0.538,0.895-0.972,1.541-1.303c1.323-0.679,2.633-0.682,3.928-0.008
		C142.335,83.229,143.487,84.55,144.496,86.519z M141.916,87.841c-0.301-0.588-0.604-1.108-0.906-1.56
		c-0.303-0.453-0.606-0.822-0.911-1.109c-0.303-0.286-0.613-0.471-0.927-0.554c-0.313-0.082-0.628-0.042-0.945,0.12
		c-0.317,0.163-0.531,0.393-0.642,0.693s-0.142,0.659-0.092,1.076c0.049,0.417,0.17,0.881,0.359,1.391
		c0.19,0.51,0.436,1.06,0.737,1.648c0.301,0.588,0.605,1.111,0.911,1.569c0.306,0.457,0.614,0.828,0.924,1.112
		c0.31,0.284,0.618,0.469,0.926,0.554s0.621,0.046,0.938-0.116s0.533-0.395,0.65-0.697c0.116-0.303,0.146-0.662,0.092-1.077
		c-0.056-0.414-0.179-0.879-0.372-1.395S142.217,88.429,141.916,87.841z"/>
	<path d="M149.859,80.177c0.302-0.262,0.611-0.549,0.928-0.863c0.318-0.313,0.62-0.642,0.908-0.986
		c0.288-0.343,0.556-0.694,0.805-1.052c0.249-0.357,0.46-0.72,0.633-1.086l1.882-0.626l4.182,12.538l-2.696,0.899l-3.011-9.028
		c-0.282,0.362-0.613,0.716-0.992,1.064c-0.38,0.348-0.757,0.665-1.131,0.95L149.859,80.177z"/>
	<path d="M175.046,77.827c0.38,2.192,0.256,3.947-0.375,5.262c-0.63,1.316-1.677,2.102-3.143,2.355
		c-1.467,0.254-2.717-0.132-3.753-1.159s-1.744-2.637-2.125-4.829c-0.188-1.09-0.247-2.073-0.173-2.951
		c0.073-0.877,0.268-1.64,0.581-2.288c0.314-0.648,0.732-1.173,1.256-1.573c0.524-0.401,1.143-0.664,1.857-0.787
		c1.466-0.254,2.717,0.132,3.752,1.159C173.96,74.044,174.668,75.647,175.046,77.827z M172.19,78.323
		c-0.113-0.651-0.247-1.238-0.402-1.76c-0.155-0.521-0.335-0.964-0.541-1.329c-0.205-0.364-0.445-0.632-0.72-0.804
		c-0.275-0.172-0.588-0.228-0.938-0.167c-0.351,0.061-0.624,0.218-0.818,0.471c-0.195,0.253-0.332,0.587-0.408,1
		c-0.077,0.414-0.1,0.892-0.07,1.435s0.101,1.14,0.214,1.792c0.113,0.651,0.247,1.24,0.403,1.769
		c0.156,0.528,0.34,0.974,0.551,1.337s0.451,0.631,0.72,0.803c0.269,0.173,0.579,0.229,0.929,0.169
		c0.351-0.061,0.627-0.219,0.828-0.473s0.336-0.587,0.407-1c0.071-0.412,0.091-0.893,0.059-1.443
		C172.375,79.574,172.303,78.974,172.19,78.323z"/>
	<path d="M182.029,73.36c0.365-0.161,0.746-0.344,1.142-0.549c0.396-0.206,0.782-0.43,1.158-0.675
		c0.376-0.243,0.736-0.499,1.081-0.767c0.343-0.269,0.652-0.552,0.925-0.851l1.983-0.044l0.291,13.214l-2.841,0.062l-0.209-9.515
		c-0.376,0.263-0.796,0.504-1.262,0.724s-0.92,0.412-1.361,0.574L182.029,73.36z"/>
	<path d="M206.811,78.549c-0.282,2.207-0.919,3.846-1.909,4.917c-0.989,1.072-2.222,1.514-3.698,1.324
		c-1.475-0.189-2.557-0.927-3.244-2.214s-0.89-3.033-0.606-5.24c0.142-1.097,0.376-2.054,0.705-2.871s0.739-1.489,1.229-2.016
		c0.49-0.526,1.045-0.904,1.664-1.132c0.618-0.229,1.288-0.296,2.006-0.204c1.477,0.188,2.558,0.927,3.245,2.213
		C206.89,74.614,207.093,76.354,206.811,78.549z M203.936,78.18c0.084-0.655,0.129-1.255,0.135-1.8
		c0.006-0.544-0.035-1.02-0.125-1.429c-0.088-0.409-0.238-0.735-0.45-0.98c-0.212-0.245-0.495-0.39-0.849-0.436
		c-0.352-0.045-0.66,0.025-0.92,0.209c-0.262,0.184-0.489,0.463-0.684,0.834c-0.195,0.374-0.359,0.823-0.49,1.351
		c-0.133,0.528-0.24,1.12-0.324,1.775c-0.084,0.656-0.13,1.259-0.137,1.81c-0.006,0.55,0.037,1.03,0.133,1.439
		c0.095,0.409,0.245,0.736,0.451,0.98c0.205,0.245,0.484,0.39,0.839,0.435c0.353,0.045,0.663-0.023,0.931-0.208
		c0.266-0.184,0.494-0.462,0.684-0.834c0.188-0.374,0.35-0.827,0.482-1.362C203.742,79.431,203.852,78.836,203.936,78.18z"/>
	<path d="M214.775,76.333c0.396-0.046,0.813-0.108,1.254-0.188c0.438-0.08,0.873-0.181,1.305-0.303s0.852-0.26,1.258-0.415
		c0.408-0.155,0.787-0.335,1.137-0.539l1.906,0.542l-3.62,12.711l-2.733-0.779l2.607-9.153c-0.436,0.141-0.91,0.247-1.42,0.319
		c-0.51,0.073-0.999,0.122-1.469,0.147L214.775,76.333z"/>
	<path d="M236.921,88.623c-0.925,2.023-2.019,3.4-3.282,4.13c-1.264,0.73-2.57,0.786-3.924,0.168
		c-1.354-0.619-2.168-1.644-2.442-3.077c-0.275-1.433,0.05-3.162,0.976-5.185c0.459-1.006,0.967-1.851,1.523-2.534
		c0.557-0.682,1.146-1.202,1.771-1.559c0.625-0.358,1.268-0.554,1.926-0.588s1.318,0.099,1.977,0.4
		c1.354,0.618,2.166,1.644,2.442,3.076C238.162,84.887,237.84,86.61,236.921,88.623z M234.283,87.417
		c0.275-0.601,0.496-1.161,0.663-1.679s0.269-0.985,0.306-1.402c0.036-0.417-0.012-0.774-0.141-1.071
		c-0.131-0.297-0.356-0.52-0.681-0.668c-0.323-0.147-0.638-0.171-0.941-0.073c-0.304,0.099-0.604,0.297-0.9,0.595
		c-0.298,0.297-0.587,0.679-0.869,1.145c-0.282,0.465-0.562,0.999-0.836,1.6c-0.274,0.602-0.497,1.164-0.666,1.688
		c-0.17,0.524-0.27,0.995-0.301,1.414c-0.031,0.419,0.017,0.777,0.14,1.071c0.125,0.294,0.349,0.515,0.673,0.663
		c0.323,0.147,0.64,0.174,0.95,0.078c0.309-0.096,0.609-0.294,0.9-0.595c0.291-0.3,0.579-0.686,0.863-1.157
		C233.729,88.555,234.009,88.018,234.283,87.417z"/>
	<path d="M245.219,88.897c0.393,0.075,0.809,0.14,1.252,0.194c0.443,0.055,0.889,0.089,1.338,0.101
		c0.447,0.012,0.889,0.005,1.324-0.021c0.435-0.026,0.85-0.085,1.244-0.177l1.659,1.088l-7.246,11.054l-2.376-1.558l5.217-7.959
		c-0.459,0.004-0.941-0.036-1.45-0.119c-0.509-0.082-0.991-0.181-1.446-0.298L245.219,88.897z"/>
	<path d="M262.691,107.217c-1.484,1.658-2.938,2.647-4.36,2.969c-1.423,0.321-2.688-0.014-3.797-1.006
		c-1.108-0.993-1.581-2.213-1.417-3.664c0.163-1.449,0.987-3.002,2.471-4.661c0.738-0.824,1.475-1.479,2.209-1.965
		s1.453-0.807,2.155-0.963c0.702-0.155,1.374-0.152,2.013,0.01c0.64,0.164,1.229,0.487,1.77,0.97
		c1.107,0.993,1.58,2.214,1.416,3.663C264.988,104.021,264.168,105.569,262.691,107.217z M260.532,105.283
		c0.441-0.493,0.819-0.961,1.132-1.407c0.313-0.444,0.549-0.86,0.708-1.247c0.159-0.388,0.22-0.742,0.185-1.064
		c-0.035-0.323-0.187-0.603-0.451-0.84c-0.266-0.237-0.558-0.354-0.877-0.35c-0.32,0.004-0.666,0.104-1.037,0.3
		c-0.372,0.196-0.762,0.474-1.17,0.834s-0.832,0.787-1.273,1.278c-0.441,0.494-0.82,0.964-1.138,1.414s-0.554,0.87-0.707,1.261
		c-0.154,0.392-0.216,0.746-0.185,1.064c0.03,0.318,0.18,0.596,0.444,0.833c0.265,0.237,0.56,0.356,0.884,0.356
		c0.324,0,0.67-0.101,1.037-0.301s0.756-0.483,1.169-0.847C259.664,106.205,260.092,105.776,260.532,105.283z"/>
	<path d="M270.514,109.902c0.354,0.187,0.732,0.371,1.141,0.554c0.406,0.183,0.822,0.346,1.247,0.489s0.849,0.267,1.272,0.369
		c0.424,0.104,0.838,0.169,1.242,0.198l1.266,1.527l-10.176,8.435l-1.813-2.188l7.327-6.073c-0.439-0.131-0.891-0.311-1.352-0.539
		c-0.462-0.229-0.894-0.466-1.295-0.711L270.514,109.902z"/>
	<path d="M281.828,132.556c-1.906,1.146-3.588,1.664-5.041,1.552c-1.455-0.112-2.565-0.806-3.332-2.081
		c-0.767-1.275-0.858-2.581-0.275-3.918c0.582-1.338,1.828-2.579,3.734-3.726c0.949-0.57,1.845-0.979,2.689-1.228
		c0.844-0.249,1.625-0.343,2.344-0.285c0.717,0.059,1.357,0.259,1.92,0.603c0.562,0.344,1.031,0.827,1.405,1.448
		c0.767,1.274,0.858,2.581,0.274,3.917C284.964,130.178,283.725,131.416,281.828,132.556z M280.334,130.071
		c0.567-0.34,1.065-0.677,1.496-1.01c0.431-0.333,0.779-0.661,1.045-0.984c0.264-0.323,0.428-0.644,0.488-0.962
		c0.062-0.319,0-0.63-0.184-0.935c-0.184-0.305-0.428-0.503-0.734-0.593c-0.307-0.09-0.666-0.096-1.08-0.019
		c-0.413,0.078-0.867,0.229-1.363,0.453c-0.496,0.224-1.026,0.506-1.594,0.847c-0.566,0.34-1.068,0.679-1.504,1.015
		c-0.436,0.336-0.785,0.669-1.047,0.998s-0.426,0.649-0.489,0.962c-0.065,0.313-0.005,0.622,0.179,0.927s0.43,0.505,0.74,0.601
		c0.309,0.095,0.669,0.102,1.079,0.019c0.409-0.083,0.865-0.238,1.366-0.466C279.234,130.697,279.769,130.413,280.334,130.071z"/>
	<path d="M288.514,137.464c0.281,0.283,0.59,0.572,0.924,0.868s0.683,0.575,1.045,0.838s0.73,0.507,1.105,0.732
		c0.373,0.224,0.748,0.41,1.125,0.558l0.754,1.834l-12.225,5.023l-1.079-2.628l8.802-3.617c-0.38-0.256-0.757-0.562-1.129-0.917
		c-0.373-0.355-0.715-0.71-1.025-1.063L288.514,137.464z"/>
	<path d="M292.568,162.459c-2.162,0.527-3.921,0.521-5.275-0.02c-1.355-0.54-2.209-1.533-2.561-2.978
		c-0.354-1.445-0.052-2.719,0.903-3.822c0.954-1.104,2.513-1.918,4.675-2.445c1.074-0.263,2.052-0.386,2.932-0.372
		c0.881,0.015,1.654,0.156,2.323,0.426c0.667,0.27,1.218,0.651,1.653,1.147c0.436,0.496,0.738,1.096,0.91,1.801
		c0.352,1.445,0.051,2.719-0.904,3.822C296.27,161.123,294.718,161.936,292.568,162.459z M291.883,159.644
		c0.641-0.157,1.217-0.33,1.728-0.52c0.51-0.189,0.939-0.399,1.29-0.628c0.35-0.229,0.601-0.487,0.754-0.773
		c0.152-0.286,0.188-0.602,0.104-0.947c-0.085-0.346-0.26-0.607-0.525-0.785c-0.267-0.177-0.608-0.29-1.025-0.339
		c-0.418-0.049-0.896-0.041-1.437,0.026s-1.132,0.178-1.773,0.334c-0.644,0.157-1.223,0.331-1.738,0.521
		c-0.516,0.191-0.948,0.405-1.296,0.64c-0.35,0.236-0.601,0.493-0.754,0.772c-0.155,0.28-0.189,0.593-0.105,0.939
		c0.084,0.346,0.26,0.61,0.527,0.794c0.268,0.183,0.609,0.296,1.024,0.339c0.416,0.043,0.897,0.03,1.444-0.038
		C290.645,159.912,291.24,159.8,291.883,159.644z"/>
	<path d="M297.492,169.118c0.185,0.353,0.393,0.721,0.625,1.103c0.232,0.381,0.482,0.751,0.75,1.11s0.547,0.701,0.838,1.026
		c0.291,0.325,0.596,0.614,0.911,0.867l0.177,1.976l-13.165,1.176l-0.253-2.83l9.479-0.847c-0.286-0.357-0.556-0.761-0.807-1.211
		c-0.25-0.45-0.471-0.89-0.664-1.319L297.492,169.118z"/>
	<path d="M293.977,194.188c-2.221-0.135-3.898-0.66-5.034-1.576s-1.658-2.115-1.568-3.6c0.089-1.486,0.753-2.615,1.991-3.387
		c1.236-0.772,2.967-1.091,5.188-0.957c1.104,0.066,2.074,0.237,2.911,0.511s1.535,0.638,2.094,1.091
		c0.558,0.454,0.972,0.982,1.241,1.584c0.27,0.604,0.383,1.266,0.338,1.989c-0.09,1.485-0.752,2.613-1.99,3.386
		S296.186,194.32,293.977,194.188z M294.152,191.293c0.66,0.04,1.262,0.045,1.805,0.014s1.016-0.104,1.418-0.221
		c0.401-0.115,0.717-0.287,0.947-0.516c0.23-0.228,0.357-0.52,0.379-0.875s-0.07-0.657-0.271-0.904
		c-0.202-0.248-0.495-0.457-0.88-0.627c-0.384-0.17-0.844-0.303-1.379-0.398c-0.537-0.097-1.135-0.164-1.794-0.203
		c-0.66-0.041-1.265-0.045-1.814-0.016c-0.55,0.031-1.025,0.107-1.428,0.23c-0.402,0.121-0.718,0.293-0.948,0.516
		c-0.23,0.222-0.355,0.51-0.377,0.865s0.068,0.66,0.27,0.914s0.494,0.463,0.879,0.627c0.385,0.163,0.848,0.292,1.391,0.389
		C292.891,191.186,293.492,191.253,294.152,191.293z"/>
	<path d="M296.717,202.025c0.072,0.393,0.162,0.806,0.271,1.238c0.109,0.434,0.238,0.86,0.389,1.283
		c0.15,0.422,0.316,0.831,0.499,1.227c0.181,0.396,0.386,0.762,0.614,1.097l-0.414,1.94l-12.926-2.761l0.594-2.778l9.307,1.986
		c-0.169-0.426-0.307-0.891-0.414-1.395s-0.188-0.99-0.245-1.457L296.717,202.025z"/>
	<path d="M285.96,224.918c-2.081-0.786-3.529-1.785-4.343-2.995c-0.814-1.211-0.959-2.513-0.434-3.903
		c0.525-1.393,1.493-2.273,2.904-2.646c1.41-0.371,3.156-0.164,5.238,0.62c1.035,0.391,1.912,0.842,2.631,1.351
		c0.718,0.509,1.277,1.062,1.676,1.661c0.398,0.6,0.639,1.227,0.717,1.881c0.079,0.654-0.009,1.322-0.264,2
		c-0.526,1.392-1.494,2.273-2.904,2.645C289.771,225.902,288.029,225.698,285.96,224.918z M286.983,222.205
		c0.618,0.233,1.192,0.415,1.72,0.547c0.528,0.131,1.002,0.201,1.42,0.209s0.771-0.062,1.059-0.211
		c0.287-0.15,0.494-0.393,0.619-0.725c0.126-0.334,0.129-0.648,0.01-0.945s-0.338-0.582-0.654-0.857
		c-0.317-0.277-0.718-0.539-1.201-0.79c-0.482-0.25-1.033-0.491-1.652-0.726c-0.619-0.233-1.195-0.416-1.729-0.55
		c-0.534-0.134-1.012-0.201-1.432-0.204c-0.42-0.002-0.773,0.068-1.059,0.213c-0.285,0.143-0.491,0.382-0.615,0.715
		c-0.127,0.333-0.131,0.65-0.014,0.953s0.335,0.588,0.654,0.859c0.318,0.269,0.724,0.529,1.213,0.782
		C285.811,221.729,286.364,221.972,286.983,222.205z"/>
	<path d="M286.257,233.197c-0.048,0.396-0.084,0.816-0.108,1.262c-0.024,0.447-0.028,0.894-0.01,1.341
		c0.018,0.448,0.055,0.888,0.111,1.321c0.055,0.432,0.143,0.842,0.261,1.229l-0.972,1.729l-11.521-6.478l1.393-2.477l8.295,4.663
		c-0.035-0.456-0.027-0.942,0.02-1.454c0.049-0.514,0.115-1.001,0.2-1.463L286.257,233.197z"/>
	<path d="M269.15,251.885c-1.754-1.37-2.838-2.754-3.255-4.152s-0.166-2.684,0.749-3.855c0.918-1.172,2.104-1.726,3.561-1.66
		c1.458,0.066,3.062,0.784,4.816,2.154c0.871,0.681,1.574,1.371,2.108,2.07c0.534,0.701,0.902,1.396,1.104,2.088
		c0.203,0.69,0.245,1.359,0.125,2.009c-0.119,0.647-0.402,1.259-0.85,1.829c-0.915,1.173-2.102,1.726-3.559,1.66
		C272.494,253.961,270.893,253.247,269.15,251.885z M270.935,249.6c0.521,0.408,1.015,0.753,1.479,1.035
		c0.465,0.283,0.896,0.49,1.293,0.623s0.755,0.17,1.073,0.113c0.32-0.058,0.588-0.227,0.809-0.507
		c0.219-0.281,0.316-0.58,0.289-0.897c-0.025-0.32-0.148-0.658-0.369-1.016c-0.22-0.357-0.523-0.729-0.91-1.111
		s-0.84-0.777-1.361-1.186c-0.521-0.406-1.017-0.754-1.486-1.039c-0.47-0.287-0.905-0.494-1.307-0.621
		c-0.4-0.128-0.758-0.166-1.072-0.113c-0.315,0.053-0.582,0.219-0.803,0.499c-0.219,0.281-0.317,0.583-0.295,0.906
		c0.021,0.323,0.144,0.661,0.368,1.015c0.224,0.353,0.532,0.723,0.925,1.109C269.957,248.797,270.414,249.193,270.935,249.6z"/>
	<path d="M266.986,259.868c-0.162,0.364-0.321,0.755-0.477,1.174c-0.154,0.419-0.289,0.845-0.404,1.278s-0.21,0.863-0.283,1.294
		c-0.075,0.43-0.113,0.847-0.115,1.251l-1.438,1.365l-9.095-9.59l2.061-1.955l6.55,6.904c0.102-0.447,0.251-0.908,0.448-1.384
		c0.197-0.477,0.404-0.923,0.622-1.339L266.986,259.868z"/>
	<path d="M245.136,272.688c-1.272-1.826-1.903-3.468-1.89-4.927c0.014-1.458,0.631-2.613,1.852-3.464
		c1.219-0.852,2.516-1.031,3.891-0.54c1.373,0.491,2.695,1.649,3.969,3.475c0.633,0.908,1.102,1.774,1.406,2.601
		c0.305,0.825,0.453,1.6,0.443,2.318s-0.166,1.372-0.473,1.957c-0.305,0.585-0.754,1.084-1.349,1.5
		c-1.221,0.85-2.517,1.029-3.892,0.539C247.721,275.654,246.4,274.502,245.136,272.688z M247.514,271.029
		c0.377,0.541,0.748,1.016,1.109,1.423s0.711,0.731,1.052,0.976c0.341,0.242,0.671,0.384,0.993,0.424
		c0.322,0.039,0.629-0.043,0.92-0.248c0.292-0.203,0.474-0.461,0.543-0.772c0.068-0.312,0.051-0.671-0.055-1.079
		c-0.105-0.406-0.287-0.85-0.544-1.33c-0.257-0.479-0.574-0.99-0.952-1.531c-0.379-0.543-0.75-1.021-1.115-1.432
		c-0.365-0.412-0.721-0.738-1.065-0.978c-0.345-0.24-0.677-0.382-0.993-0.424c-0.316-0.044-0.62,0.038-0.912,0.241
		s-0.477,0.463-0.551,0.779c-0.074,0.314-0.057,0.674,0.055,1.078c0.111,0.402,0.297,0.848,0.557,1.332
		C246.815,269.973,247.135,270.486,247.514,271.029z"/>
	<path d="M240.686,279.693c-0.262,0.299-0.53,0.625-0.803,0.979c-0.271,0.354-0.527,0.721-0.766,1.101
		c-0.238,0.379-0.457,0.763-0.654,1.151c-0.199,0.388-0.359,0.774-0.48,1.161l-1.78,0.877l-5.838-11.857l2.55-1.256l4.203,8.538
		c0.229-0.396,0.51-0.793,0.838-1.189c0.33-0.396,0.66-0.761,0.992-1.094L240.686,279.693z"/>
	<path d="M216.02,285.426c-0.672-2.122-0.783-3.877-0.336-5.266c0.449-1.389,1.381-2.307,2.8-2.756
		c1.419-0.448,2.71-0.233,3.874,0.646c1.166,0.878,2.082,2.378,2.754,4.499c0.334,1.055,0.523,2.023,0.568,2.902
		s-0.045,1.66-0.27,2.344c-0.223,0.686-0.568,1.261-1.033,1.729c-0.465,0.467-1.045,0.81-1.735,1.028
		c-1.418,0.448-2.71,0.233-3.874-0.645C217.603,289.027,216.688,287.535,216.02,285.426z M218.783,284.551
		c0.199,0.631,0.411,1.193,0.635,1.689c0.223,0.496,0.461,0.911,0.714,1.244c0.252,0.334,0.526,0.568,0.821,0.701
		c0.296,0.133,0.613,0.146,0.953,0.039c0.339-0.107,0.588-0.301,0.747-0.576c0.159-0.277,0.249-0.627,0.27-1.047
		c0.021-0.419-0.021-0.896-0.122-1.431c-0.103-0.534-0.254-1.116-0.453-1.747s-0.412-1.197-0.639-1.699
		c-0.224-0.502-0.467-0.919-0.725-1.25c-0.258-0.332-0.531-0.565-0.822-0.701c-0.289-0.135-0.604-0.148-0.942-0.041
		c-0.34,0.107-0.592,0.301-0.757,0.58c-0.165,0.277-0.256,0.627-0.27,1.045s0.031,0.896,0.135,1.438
		S218.584,283.921,218.783,284.551z"/>
	<path d="M209.723,290.78c-0.342,0.208-0.693,0.44-1.059,0.698c-0.365,0.256-0.718,0.531-1.058,0.822
		c-0.341,0.291-0.663,0.594-0.968,0.906c-0.305,0.311-0.572,0.633-0.803,0.966l-1.961,0.308l-2.055-13.056l2.807-0.441l1.48,9.401
		c0.337-0.311,0.723-0.606,1.153-0.887c0.433-0.281,0.856-0.531,1.272-0.75L209.723,290.78z"/>
	<path d="M184.483,288.953c-0.015-2.225,0.397-3.936,1.234-5.129c0.837-1.195,2-1.797,3.487-1.807
		c1.489-0.01,2.659,0.576,3.512,1.76c0.854,1.183,1.287,2.887,1.302,5.111c0.008,1.107-0.097,2.086-0.313,2.939
		s-0.533,1.574-0.949,2.162c-0.415,0.588-0.914,1.036-1.497,1.346c-0.583,0.309-1.237,0.466-1.961,0.471
		c-1.488,0.01-2.658-0.576-3.511-1.76C184.932,292.863,184.498,291.166,184.483,288.953z M187.382,288.934
		c0.004,0.662,0.041,1.262,0.107,1.802c0.068,0.54,0.172,1.007,0.314,1.399c0.143,0.393,0.336,0.697,0.579,0.912
		c0.244,0.215,0.543,0.32,0.898,0.318c0.356-0.002,0.651-0.113,0.886-0.33c0.232-0.219,0.422-0.525,0.565-0.92
		s0.245-0.862,0.306-1.402c0.06-0.543,0.088-1.144,0.082-1.805c-0.004-0.66-0.039-1.265-0.107-1.811
		c-0.066-0.547-0.174-1.016-0.323-1.41c-0.148-0.393-0.341-0.696-0.579-0.911c-0.235-0.214-0.532-0.321-0.889-0.317
		c-0.355,0.002-0.653,0.111-0.894,0.33c-0.24,0.218-0.429,0.523-0.566,0.919c-0.138,0.396-0.236,0.866-0.296,1.413
		C187.406,287.669,187.377,288.273,187.382,288.934z"/>
</g>
<circle fill="#FDB714" stroke="#010101" stroke-width="4" stroke-miterlimit="10" cx="188.785" cy="182.928" r="94.262"/>
<g enable-background="new    ">
	<path fill="#010101" d="M245.854,194.144c-1.937,9.563-5.114,17.604-9.529,24.12c-4.418,6.519-9.836,11.56-16.255,15.125
		c-6.422,3.568-13.797,5.726-22.134,6.47c-8.337,0.741-17.393,0.127-27.167-1.854c-4.463-0.903-9.633-2.146-15.508-3.722
		c-5.875-1.579-11.562-3.529-17.064-5.861l21.79-107.585c5.953,0.104,12.075,0.595,18.367,1.48c6.29,0.888,11.667,1.781,16.13,2.687
		c9.457,1.915,17.82,4.716,25.097,8.4c7.271,3.688,13.209,8.374,17.81,14.061c4.599,5.688,7.665,12.396,9.2,20.115
		C248.122,175.301,247.878,184.158,245.854,194.144z M166.871,214.651c1.146,0.344,2.484,0.696,4.017,1.062
		c1.528,0.366,3.355,0.762,5.483,1.193c12.432,2.518,22.282,1.251,29.558-3.804c7.271-5.055,12.028-13.104,14.267-24.155
		c2.347-11.58,1.252-20.929-3.279-28.042c-4.533-7.112-13.017-11.928-25.447-14.445c-1.701-0.345-3.459-0.672-5.276-0.986
		c-1.818-0.311-3.544-0.521-5.182-0.634L166.871,214.651z"/>
</g>
<line fill="none" stroke="#010101" stroke-width="12" stroke-miterlimit="10" x1="211.669" y1="105.541" x2="206.021" y2="133.403"/>
<line fill="none" stroke="#010101" stroke-width="12" stroke-miterlimit="10" x1="185.268" y1="235.896" x2="179.923" y2="262.287"/>
<line fill="none" stroke="#010101" stroke-width="12" stroke-miterlimit="10" x1="183.909" y1="100.162" x2="178.268" y2="128.024"/>
<line fill="none" stroke="#010101" stroke-width="12" stroke-miterlimit="10" x1="157.514" y1="230.518" x2="152.165" y2="256.907"/>
<g>
	<path d="M133.719,118.019c-0.494-0.228-0.998-0.474-1.509-0.734c-0.513-0.262-1.013-0.525-1.501-0.793
		c-0.488-0.267-0.949-0.528-1.383-0.782c-0.435-0.254-0.818-0.484-1.151-0.69l1.115-0.93c0.302,0.19,0.629,0.393,0.982,0.607
		c0.354,0.215,0.708,0.426,1.062,0.635c0.356,0.209,0.697,0.41,1.022,0.602c0.324,0.191,0.615,0.35,0.87,0.473
		c-0.08-0.268-0.183-0.58-0.311-0.937c-0.126-0.356-0.261-0.729-0.402-1.116c-0.141-0.387-0.286-0.774-0.433-1.16
		c-0.146-0.386-0.288-0.744-0.42-1.077l1.078-0.898c0.137,0.371,0.292,0.792,0.463,1.264c0.171,0.472,0.345,0.972,0.52,1.5
		c0.177,0.528,0.347,1.067,0.513,1.618c0.167,0.552,0.316,1.089,0.451,1.614L133.719,118.019z"/>
	<path d="M133.522,110.67l1.054-0.792l3.516,4.68l-1.054,0.792L133.522,110.67z"/>
	<path d="M137.22,107.913c0.726-0.493,1.372-0.742,1.933-0.746c0.562-0.004,1.03,0.267,1.399,0.812
		c0.231,0.34,0.342,0.669,0.33,0.987c-0.014,0.318-0.125,0.637-0.335,0.958c0.18,0.055,0.376,0.124,0.59,0.207
		s0.43,0.174,0.65,0.273c0.219,0.099,0.441,0.207,0.664,0.324c0.224,0.118,0.436,0.237,0.641,0.357l-1.218,0.827
		c-0.197-0.098-0.396-0.197-0.598-0.299c-0.203-0.102-0.403-0.196-0.603-0.284c-0.201-0.089-0.394-0.17-0.582-0.244
		c-0.187-0.073-0.365-0.135-0.535-0.183l-0.538,0.365l1.201,1.768l-1.09,0.741l-3.241-4.773c0.205-0.208,0.429-0.407,0.67-0.599
		C136.799,108.214,137.019,108.05,137.22,107.913z M137.914,108.8c-0.079,0.054-0.148,0.104-0.208,0.152
		c-0.06,0.047-0.116,0.093-0.169,0.135l0.893,1.314l0.307-0.209c0.41-0.279,0.668-0.529,0.775-0.752
		c0.109-0.222,0.079-0.458-0.09-0.704c-0.161-0.238-0.366-0.346-0.613-0.325C138.562,108.433,138.263,108.563,137.914,108.8z"/>
	<path d="M143.735,110.701l-2.985-5.035l3.4-2.017l0.564,0.952l-2.267,1.344l0.585,0.989l2.013-1.194l0.552,0.931l-2.013,1.193
		l0.719,1.213l2.436-1.444l0.563,0.952L143.735,110.701z"/>
	<path d="M149.04,106.542c0.165-0.085,0.295-0.169,0.389-0.253c0.093-0.083,0.159-0.165,0.199-0.246
		c0.042-0.081,0.057-0.16,0.048-0.238s-0.034-0.158-0.074-0.237c-0.088-0.17-0.242-0.27-0.46-0.3
		c-0.217-0.029-0.556-0.009-1.014,0.063c-0.201,0.028-0.407,0.048-0.616,0.058c-0.21,0.011-0.414-0.008-0.61-0.056
		c-0.195-0.047-0.378-0.133-0.551-0.256c-0.172-0.124-0.319-0.306-0.444-0.546c-0.124-0.24-0.191-0.479-0.201-0.719
		s0.034-0.469,0.128-0.689c0.095-0.221,0.242-0.428,0.439-0.622c0.198-0.194,0.444-0.367,0.739-0.521
		c0.35-0.181,0.673-0.3,0.966-0.357c0.294-0.057,0.547-0.083,0.758-0.079l0.141,1.098c-0.184,0-0.379,0.017-0.587,0.051
		c-0.207,0.035-0.437,0.116-0.686,0.247c-0.281,0.145-0.462,0.288-0.544,0.429c-0.083,0.141-0.083,0.292,0,0.452
		c0.049,0.095,0.113,0.163,0.191,0.205c0.079,0.042,0.173,0.068,0.284,0.078c0.11,0.01,0.229,0.008,0.358-0.006
		c0.129-0.013,0.271-0.03,0.425-0.053c0.321-0.04,0.608-0.062,0.858-0.068c0.25-0.006,0.476,0.021,0.675,0.082
		c0.201,0.062,0.378,0.163,0.534,0.305c0.155,0.142,0.298,0.337,0.427,0.587c0.251,0.485,0.276,0.95,0.075,1.394
		c-0.201,0.443-0.645,0.843-1.331,1.197c-0.23,0.119-0.445,0.213-0.644,0.281c-0.2,0.068-0.38,0.12-0.543,0.153
		c-0.163,0.033-0.309,0.055-0.435,0.062c-0.124,0.008-0.233,0.01-0.323,0.007l-0.152-1.102c0.199,0.005,0.43-0.018,0.692-0.068
		C148.413,106.824,148.709,106.713,149.04,106.542z"/>
	<path d="M151.905,99.78l1.207-0.526l2.339,5.367l-1.208,0.526L151.905,99.78z"/>
	<path d="M160.303,102.713c-0.59-0.494-1.204-0.971-1.844-1.429c-0.64-0.457-1.295-0.87-1.962-1.24l1.347,3.591l-1.219,0.457
		l-2.056-5.481l1.005-0.377c0.239,0.109,0.511,0.25,0.817,0.425c0.306,0.173,0.623,0.363,0.949,0.568
		c0.327,0.205,0.655,0.422,0.987,0.648c0.332,0.229,0.646,0.449,0.943,0.662l-1.213-3.235l1.227-0.46l2.056,5.481L160.303,102.713z"
		/>
	<path d="M168.224,100.318c-0.539-0.549-1.104-1.083-1.698-1.601c-0.593-0.517-1.205-0.992-1.833-1.424l0.992,3.705l-1.257,0.336
		l-1.515-5.654l1.037-0.278c0.228,0.131,0.485,0.299,0.773,0.501c0.288,0.203,0.583,0.422,0.889,0.659
		c0.306,0.236,0.611,0.482,0.919,0.742c0.309,0.258,0.6,0.508,0.875,0.75l-0.894-3.337l1.265-0.339l1.515,5.654L168.224,100.318z"/>
	<path d="M172.773,99.443c-0.403,0.078-0.764,0.088-1.078,0.032s-0.587-0.168-0.816-0.333c-0.229-0.165-0.417-0.378-0.562-0.64
		s-0.25-0.562-0.316-0.899l-0.688-3.575l1.293-0.25l0.669,3.468c0.045,0.232,0.109,0.425,0.193,0.577
		c0.084,0.153,0.183,0.272,0.292,0.357c0.111,0.084,0.235,0.137,0.375,0.156c0.138,0.019,0.286,0.014,0.439-0.016
		c0.315-0.061,0.553-0.207,0.712-0.438c0.159-0.231,0.193-0.579,0.104-1.044l-0.668-3.467l1.294-0.25l0.688,3.575
		c0.065,0.338,0.077,0.656,0.038,0.956c-0.041,0.301-0.137,0.57-0.292,0.81c-0.155,0.239-0.37,0.443-0.648,0.61
		C173.525,99.24,173.182,99.364,172.773,99.443z"/>
	<path d="M177.152,92.677c0.122,0.174,0.264,0.389,0.426,0.646c0.162,0.256,0.333,0.535,0.511,0.834
		c0.179,0.301,0.356,0.607,0.534,0.922s0.345,0.611,0.5,0.888c0.092-0.305,0.188-0.63,0.292-0.977
		c0.103-0.346,0.208-0.685,0.315-1.018c0.108-0.332,0.213-0.641,0.314-0.927c0.102-0.287,0.192-0.528,0.272-0.724l1.193-0.134
		c0.099,0.379,0.199,0.806,0.301,1.28c0.101,0.473,0.2,0.966,0.294,1.48c0.094,0.513,0.187,1.029,0.276,1.545
		c0.088,0.517,0.169,1.004,0.244,1.46l-1.277,0.143c-0.079-0.563-0.17-1.176-0.274-1.839c-0.102-0.663-0.221-1.33-0.352-2
		c-0.075,0.247-0.158,0.519-0.25,0.819c-0.092,0.298-0.182,0.598-0.271,0.897c-0.089,0.299-0.174,0.584-0.258,0.857
		c-0.082,0.273-0.153,0.506-0.21,0.7l-0.916,0.103c-0.099-0.176-0.22-0.387-0.361-0.635c-0.142-0.248-0.29-0.507-0.442-0.779
		c-0.152-0.272-0.307-0.543-0.462-0.815c-0.156-0.271-0.297-0.519-0.423-0.742c0.02,0.683,0.052,1.359,0.1,2.029
		c0.047,0.668,0.093,1.287,0.14,1.854l-1.276,0.144c-0.029-0.461-0.058-0.954-0.086-1.479c-0.027-0.524-0.051-1.046-0.074-1.568
		c-0.021-0.521-0.035-1.024-0.042-1.509c-0.006-0.484-0.002-0.922,0.01-1.314L177.152,92.677z"/>
	<path d="M183.705,97.925l-0.224-5.851l3.951-0.15l0.042,1.106l-2.632,0.1l0.043,1.148l2.338-0.089l0.042,1.081l-2.338,0.089
		l0.053,1.409l2.828-0.107l0.042,1.105L183.705,97.925z"/>
	<path d="M190.58,91.885c0.877,0.022,1.547,0.194,2.006,0.518c0.46,0.323,0.682,0.815,0.666,1.474
		c-0.01,0.411-0.113,0.742-0.307,0.994c-0.195,0.251-0.471,0.447-0.828,0.584c0.113,0.149,0.232,0.32,0.357,0.511
		c0.125,0.192,0.248,0.392,0.371,0.601c0.121,0.208,0.238,0.425,0.352,0.65c0.112,0.225,0.217,0.446,0.312,0.663l-1.472-0.036
		c-0.104-0.194-0.208-0.391-0.312-0.59c-0.105-0.2-0.214-0.394-0.325-0.583c-0.111-0.188-0.223-0.367-0.33-0.536
		c-0.109-0.168-0.219-0.322-0.328-0.46l-0.65-0.016l-0.052,2.137l-1.318-0.032l0.14-5.768c0.288-0.049,0.586-0.081,0.893-0.097
		C190.062,91.884,190.338,91.88,190.58,91.885z M190.629,93.011c-0.097-0.002-0.182-0.001-0.258,0.002
		c-0.076,0.004-0.148,0.008-0.217,0.012l-0.038,1.588l0.372,0.009c0.494,0.012,0.851-0.041,1.068-0.16
		c0.217-0.118,0.329-0.327,0.337-0.625c0.007-0.288-0.097-0.494-0.312-0.62C191.368,93.089,191.051,93.021,190.629,93.011z"/>
	<path d="M194.73,92.128l1.314,0.096l-0.424,5.838l-1.314-0.095L194.73,92.128z"/>
	<path d="M198.611,97.346c0.184,0.021,0.338,0.024,0.461,0.007c0.125-0.017,0.225-0.047,0.305-0.092
		c0.078-0.045,0.137-0.102,0.173-0.171c0.038-0.069,0.062-0.149,0.071-0.238c0.021-0.19-0.049-0.359-0.214-0.506
		c-0.165-0.146-0.456-0.318-0.876-0.515c-0.182-0.089-0.363-0.188-0.543-0.297c-0.18-0.109-0.338-0.238-0.475-0.387
		c-0.135-0.149-0.24-0.323-0.312-0.521c-0.074-0.198-0.095-0.433-0.062-0.701c0.031-0.268,0.109-0.504,0.235-0.708
		c0.126-0.203,0.29-0.37,0.492-0.5c0.202-0.129,0.438-0.219,0.712-0.27c0.271-0.05,0.574-0.056,0.902-0.018
		c0.393,0.045,0.727,0.127,1.002,0.244s0.499,0.237,0.672,0.359l-0.498,0.987c-0.152-0.103-0.324-0.197-0.516-0.285
		c-0.189-0.088-0.426-0.147-0.705-0.18c-0.314-0.037-0.543-0.02-0.691,0.051c-0.147,0.071-0.23,0.195-0.252,0.374
		c-0.012,0.107,0.002,0.199,0.045,0.278c0.041,0.079,0.105,0.152,0.19,0.222c0.086,0.069,0.187,0.135,0.3,0.196
		c0.115,0.062,0.243,0.126,0.382,0.193c0.29,0.148,0.538,0.289,0.75,0.423c0.212,0.135,0.383,0.285,0.515,0.448
		c0.129,0.162,0.221,0.346,0.271,0.55c0.05,0.205,0.058,0.446,0.026,0.726c-0.064,0.542-0.303,0.941-0.719,1.196
		c-0.414,0.254-1.006,0.337-1.772,0.248c-0.257-0.03-0.487-0.073-0.69-0.127s-0.382-0.113-0.537-0.178
		c-0.152-0.063-0.285-0.126-0.393-0.19c-0.109-0.063-0.201-0.122-0.274-0.176l0.491-0.998c0.162,0.115,0.365,0.227,0.611,0.332
		S198.241,97.303,198.611,97.346z"/>
	<path d="M205.375,99.414c-0.129-0.528-0.251-1.074-0.367-1.638c-0.116-0.564-0.222-1.119-0.318-1.667
		c-0.096-0.549-0.182-1.071-0.252-1.57c-0.073-0.498-0.134-0.941-0.182-1.331l1.424,0.292c0.041,0.354,0.086,0.736,0.139,1.146
		c0.053,0.41,0.109,0.819,0.168,1.227c0.059,0.408,0.114,0.799,0.167,1.173c0.054,0.374,0.112,0.699,0.175,0.976
		c0.158-0.23,0.338-0.505,0.537-0.828s0.406-0.66,0.619-1.012c0.215-0.353,0.428-0.707,0.637-1.062
		c0.211-0.356,0.403-0.689,0.578-1.001l1.375,0.281c-0.203,0.34-0.436,0.723-0.697,1.153c-0.262,0.428-0.544,0.875-0.847,1.343
		c-0.304,0.467-0.618,0.937-0.944,1.411c-0.326,0.473-0.654,0.926-0.979,1.359L205.375,99.414z"/>
	<path d="M211.017,94.678l1.276,0.328l-1.457,5.67l-1.277-0.329L211.017,94.678z"/>
	<path d="M215.443,95.832c0.841,0.259,1.438,0.606,1.793,1.042c0.354,0.436,0.436,0.969,0.24,1.599
		c-0.121,0.393-0.309,0.684-0.564,0.873c-0.256,0.19-0.575,0.302-0.957,0.338c0.07,0.175,0.139,0.372,0.207,0.59
		s0.133,0.444,0.193,0.679c0.061,0.233,0.115,0.474,0.162,0.721s0.088,0.489,0.123,0.723l-1.408-0.433
		c-0.047-0.215-0.094-0.433-0.141-0.654c-0.047-0.221-0.1-0.437-0.154-0.648c-0.057-0.212-0.115-0.414-0.174-0.605
		c-0.059-0.192-0.123-0.37-0.191-0.532l-0.621-0.191l-0.629,2.042l-1.26-0.388l1.699-5.514c0.291,0.031,0.586,0.081,0.887,0.149
		C214.947,95.69,215.213,95.76,215.443,95.832z M215.186,96.928c-0.09-0.028-0.174-0.051-0.248-0.067
		c-0.074-0.018-0.145-0.033-0.211-0.048l-0.467,1.518l0.355,0.109c0.473,0.146,0.83,0.191,1.072,0.136
		c0.24-0.056,0.404-0.226,0.493-0.51c0.083-0.275,0.04-0.502-0.132-0.681C215.878,97.204,215.59,97.052,215.186,96.928z"/>
	<path d="M217.367,102.669l2.066-5.478l3.697,1.396l-0.39,1.035l-2.466-0.93l-0.405,1.074l2.189,0.826l-0.383,1.012l-2.188-0.826
		l-0.498,1.32l2.648,0.999l-0.391,1.035L217.367,102.669z"/>
	<path d="M223.932,104.213c0.17,0.076,0.315,0.124,0.439,0.145c0.123,0.021,0.229,0.021,0.316,0.002
		c0.09-0.019,0.162-0.056,0.217-0.111c0.056-0.055,0.102-0.124,0.139-0.206c0.078-0.176,0.06-0.357-0.053-0.547
		c-0.113-0.188-0.342-0.439-0.684-0.752c-0.146-0.14-0.29-0.288-0.43-0.446c-0.14-0.157-0.252-0.328-0.338-0.51
		c-0.084-0.183-0.132-0.38-0.143-0.591c-0.01-0.211,0.039-0.44,0.148-0.688s0.256-0.449,0.437-0.606s0.388-0.267,0.618-0.331
		c0.232-0.063,0.484-0.078,0.76-0.046c0.275,0.034,0.564,0.118,0.868,0.253c0.358,0.16,0.653,0.337,0.882,0.531
		c0.229,0.194,0.406,0.375,0.535,0.543l-0.77,0.794c-0.115-0.143-0.25-0.285-0.406-0.425c-0.157-0.14-0.363-0.268-0.621-0.382
		c-0.288-0.128-0.514-0.18-0.674-0.156c-0.162,0.023-0.28,0.117-0.354,0.282c-0.043,0.098-0.056,0.191-0.04,0.278
		c0.017,0.087,0.056,0.177,0.116,0.269c0.061,0.091,0.138,0.184,0.229,0.278c0.09,0.092,0.193,0.191,0.306,0.297
		c0.232,0.227,0.429,0.436,0.591,0.627c0.16,0.192,0.279,0.386,0.355,0.58c0.077,0.194,0.109,0.396,0.096,0.606
		s-0.076,0.443-0.191,0.701c-0.221,0.499-0.568,0.809-1.041,0.928c-0.473,0.12-1.061,0.023-1.766-0.291
		c-0.237-0.105-0.445-0.215-0.623-0.328c-0.177-0.112-0.33-0.223-0.459-0.329c-0.127-0.106-0.234-0.206-0.318-0.299
		c-0.086-0.093-0.154-0.176-0.209-0.25l0.767-0.806c0.12,0.158,0.282,0.324,0.485,0.498
		C223.32,103.9,223.591,104.062,223.932,104.213z"/>
	<path d="M230.982,102.22l1.164,0.616l-2.733,5.176l-1.165-0.615L230.982,102.22z"/>
	<path d="M233.938,110.62c0.02-0.769,0.008-1.546-0.033-2.333c-0.042-0.786-0.127-1.556-0.254-2.308l-1.968,3.292l-1.118-0.668
		l3.005-5.024l0.92,0.551c0.065,0.255,0.124,0.556,0.179,0.903c0.055,0.348,0.104,0.713,0.146,1.097
		c0.043,0.384,0.08,0.775,0.109,1.177s0.053,0.784,0.07,1.149l1.772-2.965l1.124,0.671l-3.004,5.025L233.938,110.62z"/>
	<path d="M240.75,115.324c0.096-0.763,0.16-1.538,0.195-2.324c0.035-0.787,0.025-1.561-0.028-2.321l-2.278,3.084l-1.047-0.773
		l3.479-4.708l0.863,0.638c0.038,0.259,0.068,0.565,0.089,0.917c0.02,0.351,0.033,0.72,0.039,1.105
		c0.006,0.386,0.003,0.779-0.008,1.183c-0.01,0.401-0.023,0.786-0.041,1.15l2.053-2.778l1.054,0.778l-3.479,4.708L240.75,115.324z"
		/>
	<path d="M244.262,118.332c-0.312-0.268-0.544-0.542-0.696-0.824c-0.151-0.282-0.235-0.564-0.249-0.847
		c-0.014-0.282,0.037-0.562,0.15-0.838c0.115-0.276,0.283-0.545,0.507-0.807l2.366-2.766l1.002,0.856l-2.295,2.683
		c-0.154,0.18-0.266,0.35-0.332,0.512c-0.068,0.161-0.1,0.311-0.097,0.451c0.003,0.139,0.039,0.269,0.11,0.389
		c0.072,0.121,0.168,0.232,0.287,0.334c0.244,0.208,0.506,0.303,0.786,0.284c0.28-0.02,0.575-0.21,0.882-0.569l2.295-2.683
		l1.002,0.857l-2.367,2.767c-0.224,0.261-0.465,0.47-0.725,0.625c-0.26,0.156-0.531,0.248-0.814,0.276
		c-0.283,0.027-0.578-0.014-0.881-0.126C244.889,118.794,244.578,118.603,244.262,118.332z"/>
	<path d="M252.288,117.546c-0.06,0.203-0.14,0.448-0.239,0.735c-0.099,0.287-0.21,0.593-0.334,0.92
		c-0.122,0.327-0.252,0.658-0.389,0.992c-0.135,0.335-0.262,0.65-0.38,0.944c0.294-0.118,0.61-0.246,0.944-0.381
		c0.334-0.135,0.665-0.264,0.992-0.387c0.326-0.123,0.634-0.234,0.92-0.333c0.288-0.099,0.533-0.178,0.736-0.238l0.849,0.849
		c-0.235,0.314-0.507,0.659-0.814,1.033c-0.306,0.374-0.631,0.758-0.974,1.152c-0.342,0.394-0.688,0.788-1.037,1.179
		c-0.35,0.392-0.678,0.759-0.989,1.102l-0.907-0.908c0.39-0.414,0.812-0.867,1.268-1.361c0.454-0.494,0.902-1.001,1.344-1.522
		c-0.238,0.095-0.504,0.2-0.795,0.315s-0.582,0.231-0.869,0.349c-0.291,0.117-0.566,0.228-0.832,0.333
		c-0.266,0.105-0.492,0.195-0.679,0.271l-0.65-0.651c0.075-0.188,0.167-0.414,0.271-0.679c0.104-0.265,0.218-0.542,0.334-0.831
		s0.233-0.579,0.349-0.87s0.221-0.556,0.316-0.795c-0.521,0.442-1.029,0.89-1.523,1.343s-0.948,0.876-1.363,1.266l-0.907-0.909
		c0.343-0.31,0.71-0.64,1.103-0.988c0.393-0.348,0.785-0.693,1.181-1.035c0.394-0.342,0.778-0.667,1.153-0.974
		c0.375-0.306,0.719-0.577,1.033-0.812L252.288,117.546z"/>
	<path d="M252.279,125.949l4.434-3.823l2.58,2.993l-0.836,0.723l-1.723-1.996l-0.869,0.75l1.527,1.772l-0.818,0.706l-1.528-1.771
		l-1.067,0.92l1.848,2.143l-0.838,0.723L252.279,125.949z"/>
	<path d="M261.293,127.562c0.531,0.699,0.814,1.329,0.848,1.891c0.035,0.562-0.211,1.041-0.734,1.44
		c-0.328,0.249-0.65,0.375-0.969,0.38s-0.643-0.089-0.975-0.283c-0.045,0.183-0.104,0.382-0.176,0.599
		c-0.071,0.218-0.15,0.439-0.237,0.664c-0.087,0.226-0.183,0.452-0.29,0.682c-0.104,0.229-0.211,0.448-0.32,0.658l-0.893-1.172
		c0.088-0.202,0.177-0.406,0.268-0.613c0.09-0.208,0.174-0.413,0.252-0.618c0.076-0.205,0.148-0.402,0.213-0.593
		c0.062-0.19,0.115-0.372,0.154-0.544l-0.395-0.517l-1.701,1.293l-0.797-1.049l4.592-3.492c0.221,0.195,0.43,0.407,0.635,0.638
		C260.971,127.157,261.146,127.369,261.293,127.562z M260.444,128.302c-0.058-0.076-0.112-0.143-0.163-0.2
		c-0.051-0.058-0.098-0.111-0.143-0.162l-1.266,0.961l0.225,0.295c0.301,0.395,0.564,0.64,0.792,0.735
		c0.229,0.096,0.462,0.053,0.698-0.128c0.229-0.173,0.326-0.383,0.293-0.629C260.846,128.929,260.699,128.638,260.444,128.302z"/>
	<path d="M263.67,130.918l0.746,1.086l-4.822,3.318l-0.747-1.086L263.67,130.918z"/>
	<path d="M262.029,137.219c0.098,0.157,0.193,0.279,0.283,0.365c0.09,0.087,0.178,0.147,0.262,0.18
		c0.084,0.034,0.166,0.043,0.242,0.028c0.077-0.015,0.153-0.046,0.23-0.094c0.162-0.102,0.249-0.262,0.261-0.482
		c0.013-0.22-0.037-0.555-0.146-1.005c-0.043-0.198-0.08-0.402-0.107-0.61c-0.027-0.208-0.025-0.412,0.006-0.612
		c0.031-0.199,0.102-0.389,0.211-0.57c0.109-0.182,0.277-0.344,0.508-0.487c0.229-0.144,0.463-0.229,0.699-0.258
		c0.238-0.029,0.471-0.005,0.699,0.072c0.227,0.077,0.444,0.206,0.654,0.387c0.211,0.182,0.402,0.413,0.579,0.694
		c0.209,0.334,0.353,0.646,0.435,0.934c0.081,0.289,0.127,0.539,0.141,0.75l-1.082,0.229c-0.016-0.184-0.05-0.377-0.1-0.581
		c-0.052-0.203-0.152-0.425-0.302-0.664c-0.167-0.267-0.324-0.436-0.472-0.507c-0.146-0.071-0.297-0.058-0.449,0.037
		c-0.092,0.057-0.154,0.126-0.189,0.208c-0.035,0.082-0.053,0.177-0.053,0.288c-0.002,0.11,0.01,0.229,0.033,0.357
		s0.053,0.268,0.088,0.419c0.066,0.317,0.111,0.601,0.139,0.85c0.025,0.249,0.016,0.476-0.029,0.68
		c-0.045,0.205-0.131,0.39-0.26,0.557c-0.128,0.167-0.312,0.325-0.549,0.474c-0.464,0.29-0.926,0.353-1.383,0.188
		c-0.459-0.166-0.894-0.575-1.303-1.229c-0.137-0.22-0.248-0.426-0.332-0.619s-0.15-0.37-0.197-0.53
		c-0.047-0.159-0.078-0.302-0.098-0.426c-0.018-0.125-0.029-0.233-0.032-0.323l1.085-0.241c0.012,0.199,0.053,0.427,0.125,0.685
		C261.697,136.617,261.832,136.903,262.029,137.219z"/>
	<path d="M264.639,143.785c0.332-0.432,0.682-0.869,1.049-1.311c0.367-0.443,0.734-0.873,1.104-1.29
		c0.368-0.418,0.724-0.811,1.066-1.178c0.344-0.368,0.652-0.692,0.926-0.972l0.662,1.293c-0.252,0.251-0.521,0.526-0.807,0.824
		c-0.287,0.297-0.572,0.596-0.854,0.896c-0.283,0.301-0.553,0.589-0.811,0.864c-0.26,0.275-0.477,0.524-0.654,0.745
		c0.279-0.019,0.605-0.051,0.982-0.097c0.375-0.046,0.769-0.095,1.178-0.148c0.408-0.053,0.816-0.109,1.225-0.167
		c0.41-0.059,0.791-0.117,1.145-0.174l0.639,1.249c-0.391,0.054-0.836,0.111-1.335,0.175c-0.498,0.063-1.024,0.123-1.577,0.178
		c-0.554,0.056-1.117,0.104-1.691,0.144c-0.574,0.041-1.132,0.069-1.674,0.086L264.639,143.785z"/>
	<path d="M271.865,145.239l0.539,1.202l-5.338,2.4l-0.541-1.202L271.865,145.239z"/>
	<path d="M273.73,149.429c0.322,0.817,0.424,1.502,0.305,2.051c-0.121,0.549-0.486,0.945-1.1,1.186
		c-0.383,0.15-0.727,0.185-1.035,0.103c-0.308-0.081-0.594-0.261-0.861-0.537c-0.092,0.164-0.203,0.34-0.331,0.53
		c-0.128,0.189-0.265,0.381-0.409,0.574s-0.299,0.385-0.463,0.577c-0.164,0.191-0.326,0.373-0.488,0.546l-0.54-1.371
		c0.14-0.17,0.28-0.342,0.423-0.517c0.143-0.174,0.281-0.35,0.412-0.526c0.129-0.176,0.251-0.347,0.364-0.513
		s0.212-0.327,0.296-0.481l-0.238-0.605l-1.988,0.783l-0.482-1.227l5.369-2.113c0.156,0.247,0.303,0.509,0.436,0.786
		C273.532,148.953,273.643,149.204,273.73,149.429z M272.715,149.912c-0.035-0.09-0.07-0.169-0.104-0.237
		c-0.033-0.069-0.064-0.133-0.094-0.194l-1.479,0.582l0.137,0.346c0.182,0.461,0.369,0.769,0.562,0.922
		c0.193,0.154,0.43,0.176,0.707,0.066c0.268-0.104,0.416-0.28,0.451-0.526C272.93,150.624,272.869,150.305,272.715,149.912z"/>
	<path d="M269.586,155.196l5.569-1.802l1.218,3.762l-1.054,0.341l-0.812-2.508l-1.093,0.354l0.72,2.227l-1.027,0.333l-0.721-2.227
		l-1.344,0.434l0.872,2.693l-1.054,0.341L269.586,155.196z"/>
	<path d="M272.473,161.291c0.047,0.18,0.1,0.325,0.16,0.434c0.062,0.109,0.127,0.193,0.197,0.25c0.07,0.058,0.145,0.091,0.223,0.1
		s0.16,0.002,0.246-0.021c0.186-0.048,0.317-0.175,0.396-0.382c0.076-0.207,0.13-0.541,0.161-1.002
		c0.018-0.203,0.043-0.407,0.08-0.614c0.037-0.208,0.1-0.401,0.189-0.582c0.089-0.181,0.213-0.341,0.371-0.48
		c0.159-0.141,0.369-0.245,0.631-0.313c0.262-0.068,0.51-0.081,0.744-0.038c0.236,0.043,0.451,0.136,0.645,0.277
		c0.194,0.142,0.365,0.33,0.51,0.565c0.146,0.236,0.26,0.515,0.345,0.836c0.1,0.381,0.144,0.722,0.136,1.021
		c-0.01,0.299-0.039,0.552-0.091,0.757l-1.102-0.106c0.04-0.179,0.067-0.374,0.079-0.583c0.013-0.209-0.018-0.451-0.088-0.723
		c-0.08-0.306-0.18-0.514-0.299-0.625c-0.119-0.112-0.266-0.145-0.441-0.099c-0.102,0.027-0.184,0.074-0.24,0.142
		c-0.059,0.067-0.105,0.153-0.139,0.258c-0.033,0.105-0.059,0.222-0.074,0.351c-0.016,0.129-0.03,0.271-0.042,0.425
		c-0.032,0.323-0.073,0.607-0.123,0.853s-0.126,0.459-0.229,0.64c-0.104,0.182-0.243,0.333-0.414,0.453
		c-0.174,0.12-0.395,0.216-0.668,0.287c-0.529,0.138-0.986,0.06-1.375-0.235c-0.389-0.294-0.679-0.815-0.874-1.562
		c-0.065-0.251-0.109-0.48-0.132-0.689c-0.021-0.21-0.033-0.398-0.029-0.564c0.002-0.167,0.014-0.312,0.035-0.437
		c0.02-0.125,0.041-0.231,0.064-0.319l1.107,0.097c-0.048,0.192-0.077,0.423-0.086,0.69
		C272.336,160.618,272.379,160.931,272.473,161.291z"/>
	<path d="M278.434,165.576l0.246,1.294l-5.754,1.092l-0.244-1.295L278.434,165.576z"/>
	<path d="M273.711,173.11c0.613-0.464,1.213-0.958,1.801-1.48c0.59-0.523,1.137-1.069,1.645-1.639l-3.799,0.516l-0.176-1.289
		l5.801-0.788l0.145,1.063c-0.159,0.208-0.357,0.443-0.596,0.702c-0.236,0.26-0.492,0.526-0.764,0.799
		c-0.273,0.272-0.559,0.546-0.854,0.819s-0.58,0.53-0.854,0.772l3.424-0.465l0.176,1.297l-5.802,0.788L273.711,173.11z"/>
	<path d="M274.285,181.348c0.656-0.402,1.301-0.835,1.938-1.298s1.234-0.954,1.797-1.471l-3.833,0.144l-0.048-1.3l5.849-0.22
		l0.04,1.072c-0.178,0.192-0.398,0.407-0.66,0.642c-0.262,0.235-0.541,0.476-0.84,0.721c-0.299,0.245-0.606,0.489-0.928,0.732
		c-0.32,0.244-0.629,0.471-0.924,0.686l3.451-0.13l0.049,1.309l-5.85,0.22L274.285,181.348z"/>
	<path d="M274.123,186.006c0.014-0.411,0.084-0.764,0.211-1.058c0.125-0.294,0.293-0.535,0.506-0.722
		c0.211-0.188,0.461-0.323,0.749-0.406s0.603-0.119,0.946-0.106l3.639,0.125l-0.046,1.316l-3.528-0.121
		c-0.236-0.008-0.438,0.012-0.605,0.06c-0.169,0.048-0.307,0.116-0.414,0.206c-0.107,0.089-0.186,0.199-0.235,0.329
		c-0.05,0.131-0.077,0.275-0.081,0.433c-0.012,0.321,0.078,0.585,0.268,0.791c0.189,0.207,0.521,0.318,0.994,0.335l3.529,0.121
		l-0.046,1.317l-3.64-0.126c-0.342-0.012-0.656-0.069-0.939-0.176c-0.283-0.105-0.524-0.26-0.723-0.464
		c-0.2-0.204-0.35-0.46-0.452-0.769C274.152,186.785,274.109,186.422,274.123,186.006z"/>
	<path d="M279.743,191.789c-0.195,0.08-0.437,0.17-0.723,0.271s-0.597,0.205-0.929,0.312s-0.671,0.213-1.018,0.315
		c-0.346,0.103-0.671,0.2-0.975,0.291c0.275,0.155,0.572,0.322,0.887,0.5s0.621,0.355,0.92,0.535c0.3,0.179,0.578,0.349,0.835,0.512
		s0.472,0.305,0.646,0.427l-0.135,1.191c-0.393,0.013-0.832,0.016-1.314,0.009c-0.484-0.007-0.987-0.021-1.509-0.042
		c-0.521-0.022-1.044-0.048-1.568-0.076c-0.524-0.027-1.017-0.057-1.478-0.086l0.144-1.275c0.567,0.046,1.186,0.094,1.854,0.141
		c0.668,0.047,1.346,0.082,2.029,0.102c-0.225-0.127-0.471-0.269-0.742-0.424c-0.272-0.156-0.545-0.311-0.815-0.464
		c-0.272-0.152-0.532-0.3-0.78-0.442c-0.246-0.141-0.457-0.262-0.634-0.361l0.103-0.914c0.195-0.059,0.428-0.129,0.7-0.211
		c0.272-0.084,0.56-0.169,0.858-0.258c0.299-0.088,0.598-0.178,0.897-0.27c0.298-0.091,0.573-0.174,0.819-0.248
		c-0.672-0.133-1.339-0.25-2.001-0.354c-0.663-0.104-1.276-0.195-1.839-0.276l0.145-1.275c0.455,0.073,0.943,0.156,1.459,0.245
		c0.518,0.09,1.033,0.182,1.547,0.277c0.512,0.095,1.006,0.192,1.479,0.295c0.475,0.102,0.9,0.202,1.28,0.302L279.743,191.789z"/>
	<path d="M273.17,197.008l5.754,1.079l-0.728,3.886l-1.089-0.204l0.486-2.591l-1.129-0.211l-0.432,2.3l-1.062-0.199l0.432-2.3
		l-1.387-0.26l-0.521,2.781l-1.088-0.204L273.17,197.008z"/>
	<path d="M277.545,205.027c-0.215,0.853-0.528,1.467-0.946,1.845c-0.415,0.377-0.944,0.485-1.583,0.325
		c-0.4-0.1-0.699-0.273-0.902-0.518c-0.203-0.246-0.332-0.559-0.388-0.938c-0.171,0.078-0.363,0.158-0.578,0.238
		c-0.214,0.079-0.437,0.155-0.667,0.229c-0.23,0.072-0.467,0.14-0.711,0.2c-0.246,0.061-0.484,0.113-0.717,0.159l0.359-1.428
		c0.211-0.058,0.426-0.116,0.645-0.175c0.217-0.06,0.432-0.122,0.639-0.189c0.209-0.067,0.408-0.136,0.598-0.204
		c0.188-0.07,0.361-0.144,0.52-0.22l0.158-0.631l-2.072-0.521l0.32-1.277l5.596,1.404c-0.015,0.292-0.049,0.589-0.102,0.893
		C277.66,204.523,277.604,204.793,277.545,205.027z M276.437,204.828c0.022-0.093,0.042-0.177,0.055-0.252s0.025-0.146,0.036-0.213
		l-1.541-0.387l-0.09,0.361c-0.121,0.48-0.146,0.839-0.078,1.076c0.068,0.238,0.246,0.394,0.536,0.467
		c0.278,0.069,0.503,0.014,0.673-0.167S276.334,205.238,276.437,204.828z"/>
	<path d="M276.4,209.019l-0.381,1.262l-5.604-1.692l0.38-1.262L276.4,209.019z"/>
	<path d="M270.461,211.658c-0.061,0.176-0.098,0.325-0.108,0.449c-0.011,0.125-0.003,0.23,0.024,0.317
		c0.025,0.087,0.068,0.155,0.127,0.206c0.061,0.051,0.133,0.092,0.219,0.121c0.181,0.063,0.361,0.03,0.539-0.098
		c0.18-0.128,0.412-0.375,0.694-0.741c0.127-0.159,0.263-0.313,0.409-0.466c0.145-0.152,0.306-0.277,0.48-0.377
		c0.176-0.101,0.369-0.164,0.577-0.192c0.21-0.028,0.442,0.003,0.698,0.092c0.254,0.089,0.469,0.218,0.64,0.386
		c0.171,0.166,0.297,0.363,0.38,0.589c0.082,0.226,0.117,0.477,0.107,0.754c-0.01,0.276-0.07,0.571-0.18,0.886
		c-0.131,0.371-0.283,0.679-0.459,0.923c-0.174,0.243-0.34,0.436-0.498,0.577l-0.854-0.702c0.134-0.126,0.264-0.272,0.391-0.439
		c0.129-0.169,0.238-0.384,0.33-0.65c0.105-0.297,0.139-0.526,0.103-0.685c-0.038-0.16-0.142-0.269-0.312-0.328
		c-0.101-0.035-0.193-0.041-0.279-0.018s-0.172,0.069-0.259,0.138s-0.173,0.151-0.259,0.25c-0.084,0.099-0.175,0.208-0.271,0.329
		c-0.207,0.25-0.398,0.463-0.576,0.64c-0.18,0.177-0.361,0.312-0.549,0.403s-0.387,0.142-0.597,0.145
		c-0.21,0.004-0.448-0.04-0.714-0.134c-0.516-0.18-0.852-0.501-1.01-0.962s-0.111-1.055,0.145-1.783
		c0.086-0.245,0.178-0.46,0.275-0.646c0.099-0.187,0.195-0.348,0.291-0.484s0.186-0.251,0.271-0.344
		c0.086-0.092,0.164-0.168,0.232-0.227l0.866,0.695c-0.147,0.134-0.3,0.309-0.457,0.525S270.584,211.307,270.461,211.658z"/>
	<path d="M266.963,217.805c0.543-0.01,1.104-0.01,1.678,0.002c0.576,0.01,1.141,0.029,1.697,0.056
		c0.556,0.026,1.084,0.06,1.585,0.098c0.502,0.039,0.948,0.078,1.339,0.117l-0.598,1.324c-0.354-0.039-0.736-0.078-1.148-0.117
		c-0.412-0.038-0.822-0.072-1.233-0.106c-0.411-0.032-0.805-0.063-1.183-0.094c-0.375-0.029-0.706-0.044-0.988-0.044
		c0.188,0.206,0.418,0.441,0.688,0.706c0.271,0.266,0.554,0.541,0.851,0.827c0.296,0.286,0.596,0.571,0.896,0.854
		c0.303,0.283,0.584,0.545,0.85,0.785l-0.576,1.279c-0.286-0.274-0.609-0.585-0.971-0.935c-0.36-0.35-0.734-0.723-1.123-1.121
		c-0.391-0.398-0.779-0.808-1.17-1.23c-0.391-0.424-0.76-0.842-1.111-1.254L266.963,217.805z"/>
	<path d="M270.346,224.343l-0.604,1.172l-5.207-2.673l0.602-1.172L270.346,224.343z"/>
	<path d="M268.229,228.427c-0.438,0.761-0.908,1.267-1.413,1.516s-1.042,0.209-1.612-0.12c-0.357-0.205-0.6-0.453-0.728-0.745
		s-0.167-0.627-0.116-1.008c-0.186,0.029-0.393,0.054-0.621,0.071c-0.229,0.019-0.463,0.031-0.705,0.039
		c-0.24,0.007-0.487,0.006-0.738-0.003c-0.253-0.008-0.496-0.022-0.732-0.041l0.736-1.276c0.219,0.003,0.441,0.004,0.668,0.008
		c0.225,0.003,0.447,0,0.666-0.008c0.219-0.007,0.428-0.019,0.629-0.033c0.2-0.016,0.387-0.038,0.561-0.068l0.326-0.564
		l-1.854-1.066l0.658-1.142l5,2.88c-0.096,0.276-0.209,0.553-0.344,0.831C268.477,227.973,268.35,228.217,268.229,228.427z
		 M267.217,227.932c0.049-0.083,0.088-0.159,0.122-0.228c0.032-0.069,0.063-0.134,0.093-0.194l-1.377-0.794l-0.186,0.323
		c-0.246,0.429-0.371,0.768-0.369,1.015c0,0.247,0.129,0.445,0.389,0.594c0.248,0.144,0.48,0.151,0.692,0.024
		C266.795,228.544,267.008,228.298,267.217,227.932z"/>
	<path d="M261.138,228.778l4.88,3.232l-2.184,3.296l-0.922-0.611l1.455-2.197l-0.957-0.635l-1.293,1.951l-0.9-0.597l1.291-1.951
		l-1.176-0.778l-1.562,2.358l-0.923-0.611L261.138,228.778z"/>
	<path d="M258.164,234.844c-0.111,0.148-0.191,0.279-0.239,0.396c-0.048,0.115-0.073,0.218-0.073,0.31
		c-0.001,0.09,0.02,0.169,0.061,0.235s0.1,0.127,0.17,0.181c0.154,0.115,0.336,0.139,0.545,0.07s0.504-0.234,0.886-0.498
		c0.168-0.113,0.345-0.219,0.53-0.32c0.185-0.101,0.375-0.172,0.572-0.215c0.197-0.042,0.399-0.045,0.607-0.008
		c0.209,0.036,0.422,0.136,0.637,0.298c0.217,0.162,0.382,0.349,0.494,0.561c0.113,0.21,0.175,0.436,0.185,0.676
		c0.009,0.24-0.032,0.49-0.124,0.752c-0.094,0.26-0.241,0.523-0.439,0.79c-0.238,0.314-0.476,0.562-0.715,0.741
		c-0.24,0.179-0.457,0.312-0.65,0.4l-0.603-0.928c0.165-0.08,0.335-0.181,0.507-0.302s0.342-0.294,0.511-0.52
		c0.19-0.252,0.29-0.46,0.303-0.623c0.014-0.162-0.053-0.298-0.196-0.405c-0.086-0.064-0.174-0.098-0.262-0.102
		c-0.089-0.003-0.186,0.015-0.288,0.053c-0.104,0.039-0.212,0.093-0.321,0.161c-0.111,0.068-0.23,0.146-0.359,0.232
		c-0.272,0.176-0.52,0.32-0.742,0.435c-0.225,0.114-0.438,0.188-0.645,0.219s-0.412,0.018-0.613-0.042s-0.415-0.174-0.641-0.343
		c-0.437-0.327-0.662-0.735-0.673-1.222c-0.011-0.488,0.216-1.04,0.679-1.657c0.154-0.207,0.307-0.385,0.457-0.533
		c0.149-0.147,0.29-0.272,0.424-0.374c0.132-0.102,0.252-0.184,0.362-0.245s0.206-0.11,0.29-0.147l0.615,0.927
		c-0.182,0.081-0.379,0.202-0.594,0.362C258.605,234.317,258.387,234.546,258.164,234.844z"/>
	<path d="M258.525,242.173l-0.859,0.999l-4.436-3.819l0.859-0.998L258.525,242.173z"/>
	<path d="M249.695,243.168c0.744,0.19,1.506,0.353,2.28,0.486c0.776,0.135,1.545,0.223,2.306,0.266l-2.771-2.65l0.9-0.94l4.23,4.046
		l-0.742,0.775c-0.262,0.006-0.568-0.004-0.92-0.027c-0.352-0.024-0.719-0.058-1.102-0.101c-0.384-0.044-0.775-0.096-1.172-0.156
		c-0.397-0.061-0.775-0.123-1.136-0.187l2.497,2.388l-0.904,0.946l-4.232-4.046L249.695,243.168z"/>
	<path d="M243.614,248.753c0.724,0.262,1.466,0.496,2.224,0.704c0.76,0.208,1.517,0.37,2.271,0.486l-2.504-2.905l0.985-0.85
		l3.822,4.435l-0.813,0.7c-0.263-0.019-0.565-0.058-0.913-0.115s-0.709-0.126-1.087-0.207c-0.378-0.079-0.761-0.169-1.151-0.268
		c-0.39-0.099-0.761-0.197-1.113-0.295l2.256,2.617l-0.992,0.854l-3.822-4.435L243.614,248.753z"/>
	<path d="M239.879,251.533c0.33-0.245,0.648-0.411,0.957-0.496c0.309-0.086,0.602-0.105,0.881-0.057
		c0.277,0.049,0.539,0.16,0.783,0.332c0.246,0.173,0.471,0.396,0.676,0.673l2.174,2.919l-1.057,0.788l-2.109-2.832
		c-0.141-0.189-0.283-0.335-0.424-0.437c-0.143-0.102-0.281-0.166-0.42-0.193c-0.136-0.028-0.271-0.021-0.404,0.021
		s-0.262,0.111-0.389,0.206c-0.258,0.191-0.408,0.427-0.451,0.704c-0.042,0.277,0.078,0.605,0.361,0.985l2.109,2.831l-1.057,0.787
		l-2.176-2.919c-0.205-0.276-0.355-0.558-0.45-0.845s-0.124-0.573-0.089-0.855c0.035-0.283,0.141-0.56,0.317-0.832
		C239.289,252.043,239.545,251.782,239.879,251.533z"/>
	<path d="M238.885,259.527c-0.186-0.103-0.406-0.234-0.664-0.395s-0.533-0.337-0.824-0.529c-0.291-0.191-0.586-0.391-0.883-0.597
		s-0.576-0.399-0.836-0.581c0.051,0.314,0.104,0.649,0.163,1.006c0.057,0.356,0.11,0.707,0.159,1.053
		c0.047,0.346,0.088,0.67,0.121,0.972c0.033,0.303,0.057,0.56,0.07,0.771l-1.014,0.641c-0.256-0.3-0.531-0.64-0.828-1.021
		c-0.299-0.382-0.602-0.783-0.91-1.203c-0.31-0.422-0.617-0.846-0.924-1.272c-0.303-0.426-0.59-0.829-0.855-1.207l1.086-0.686
		c0.318,0.473,0.668,0.984,1.049,1.536s0.778,1.102,1.188,1.647c-0.04-0.255-0.083-0.536-0.132-0.846
		c-0.048-0.31-0.098-0.618-0.148-0.926s-0.098-0.602-0.141-0.884c-0.045-0.281-0.082-0.522-0.115-0.722l0.779-0.491
		c0.166,0.115,0.365,0.253,0.602,0.414c0.234,0.161,0.48,0.331,0.736,0.51c0.256,0.177,0.514,0.354,0.771,0.531
		s0.494,0.338,0.705,0.484c-0.314-0.607-0.64-1.2-0.974-1.783c-0.334-0.582-0.645-1.117-0.935-1.607l1.086-0.686
		c0.229,0.402,0.468,0.834,0.721,1.294c0.254,0.459,0.505,0.919,0.752,1.38c0.246,0.459,0.477,0.906,0.693,1.339
		s0.404,0.828,0.564,1.187L238.885,259.527z"/>
	<path d="M230.696,257.665l2.755,5.165l-3.49,1.86l-0.52-0.977l2.326-1.24l-0.541-1.014l-2.065,1.101l-0.508-0.953l2.063-1.102
		l-0.664-1.245l-2.496,1.332l-0.521-0.977L230.696,257.665z"/>
	<path d="M227.127,266.111c-0.8,0.364-1.477,0.501-2.032,0.411c-0.556-0.091-0.97-0.436-1.243-1.035
		c-0.17-0.374-0.223-0.717-0.156-1.028c0.064-0.311,0.229-0.607,0.49-0.888c-0.17-0.084-0.352-0.185-0.547-0.303
		c-0.196-0.118-0.395-0.243-0.596-0.379c-0.201-0.134-0.4-0.277-0.602-0.431c-0.199-0.153-0.391-0.307-0.57-0.459l1.34-0.611
		c0.178,0.129,0.357,0.261,0.539,0.395c0.184,0.133,0.364,0.261,0.547,0.382c0.184,0.121,0.359,0.233,0.531,0.337
		c0.172,0.104,0.338,0.195,0.496,0.271l0.592-0.27l-0.887-1.944l1.199-0.547l2.395,5.248c-0.238,0.172-0.492,0.33-0.762,0.479
		C227.592,265.886,227.348,266.01,227.127,266.111z M226.59,265.12c0.088-0.04,0.166-0.078,0.231-0.114
		c0.067-0.037,0.13-0.072,0.19-0.105l-0.66-1.445l-0.338,0.154c-0.451,0.207-0.748,0.41-0.892,0.611s-0.153,0.438-0.028,0.71
		c0.119,0.262,0.303,0.402,0.549,0.422C225.891,265.373,226.207,265.295,226.59,265.12z"/>
	<path d="M223.32,267.693l-1.223,0.49l-2.174-5.437l1.223-0.489L223.32,267.693z"/>
	<path d="M217.554,264.699c-0.175,0.061-0.315,0.126-0.419,0.195c-0.104,0.069-0.182,0.141-0.234,0.216
		c-0.051,0.075-0.076,0.151-0.08,0.229c-0.002,0.078,0.012,0.16,0.042,0.246c0.062,0.181,0.2,0.301,0.413,0.361
		c0.211,0.06,0.549,0.086,1.012,0.079c0.203,0,0.408,0.01,0.619,0.029c0.209,0.019,0.408,0.065,0.596,0.14
		c0.188,0.075,0.357,0.186,0.51,0.332s0.273,0.348,0.363,0.603c0.089,0.255,0.121,0.502,0.098,0.74
		c-0.023,0.237-0.099,0.459-0.224,0.664c-0.126,0.205-0.3,0.39-0.522,0.555c-0.223,0.164-0.49,0.302-0.805,0.411
		c-0.371,0.131-0.707,0.203-1.006,0.219s-0.553,0.006-0.762-0.029l0.014-1.105c0.184,0.025,0.379,0.036,0.59,0.031
		c0.209-0.005,0.447-0.055,0.713-0.147c0.298-0.104,0.498-0.22,0.599-0.349c0.102-0.128,0.122-0.277,0.063-0.447
		c-0.036-0.101-0.09-0.178-0.162-0.229s-0.16-0.092-0.268-0.116c-0.107-0.025-0.227-0.04-0.357-0.045
		c-0.131-0.006-0.272-0.008-0.427-0.008c-0.325-0.006-0.61-0.022-0.86-0.052c-0.248-0.029-0.468-0.088-0.656-0.177
		c-0.189-0.09-0.352-0.215-0.486-0.376c-0.133-0.162-0.248-0.376-0.34-0.642c-0.182-0.516-0.141-0.979,0.121-1.39
		c0.262-0.411,0.756-0.745,1.485-0.999c0.243-0.086,0.47-0.148,0.677-0.188c0.207-0.039,0.393-0.064,0.561-0.075
		c0.166-0.011,0.312-0.011,0.438-0.001c0.125,0.01,0.232,0.022,0.322,0.039l-0.004,1.111c-0.197-0.032-0.429-0.043-0.695-0.029
		C218.213,264.508,217.904,264.576,217.554,264.699z"/>
	<path d="M210.556,265.801c0.348,0.419,0.697,0.856,1.047,1.312c0.352,0.456,0.688,0.91,1.016,1.361
		c0.325,0.451,0.628,0.885,0.911,1.301s0.531,0.789,0.743,1.118l-1.407,0.359c-0.189-0.302-0.398-0.624-0.625-0.971
		c-0.227-0.345-0.455-0.688-0.686-1.03c-0.232-0.342-0.453-0.669-0.664-0.981c-0.211-0.313-0.406-0.581-0.583-0.802
		c-0.043,0.275-0.083,0.603-0.122,0.979c-0.039,0.377-0.076,0.771-0.117,1.182c-0.037,0.41-0.073,0.821-0.107,1.232
		c-0.033,0.412-0.061,0.797-0.083,1.154l-1.358,0.348c0.033-0.395,0.076-0.842,0.125-1.342s0.105-1.025,0.174-1.578
		s0.146-1.112,0.232-1.681c0.088-0.569,0.184-1.119,0.287-1.651L210.556,265.801z"/>
	<path d="M207.561,272.522l-1.291,0.261l-1.16-5.738l1.293-0.261L207.561,272.522z"/>
	<path d="M203.037,273.418c-0.867,0.133-1.557,0.079-2.066-0.16c-0.508-0.238-0.812-0.683-0.912-1.334
		c-0.062-0.407-0.02-0.751,0.129-1.033c0.148-0.281,0.387-0.521,0.715-0.72c-0.139-0.127-0.285-0.273-0.442-0.44
		c-0.156-0.167-0.313-0.343-0.47-0.527c-0.156-0.184-0.309-0.377-0.459-0.579s-0.292-0.401-0.424-0.598l1.455-0.222
		c0.136,0.173,0.271,0.349,0.411,0.527c0.138,0.178,0.279,0.351,0.421,0.517c0.145,0.166,0.283,0.323,0.42,0.471
		s0.271,0.278,0.402,0.396l0.643-0.098l-0.32-2.113l1.303-0.198l0.868,5.704c-0.276,0.098-0.563,0.182-0.864,0.251
		C203.547,273.329,203.277,273.381,203.037,273.418z M202.793,272.318c0.095-0.015,0.18-0.029,0.254-0.047
		c0.073-0.018,0.145-0.033,0.211-0.049l-0.24-1.57l-0.367,0.056c-0.49,0.075-0.832,0.189-1.023,0.345
		c-0.193,0.154-0.268,0.379-0.223,0.674c0.043,0.284,0.182,0.47,0.414,0.557S202.377,272.383,202.793,272.318z"/>
	<path d="M198.348,268.094l0.52,5.832l-3.938,0.35l-0.099-1.103l2.625-0.233l-0.102-1.145l-2.331,0.207l-0.096-1.077l2.331-0.207
		l-0.124-1.404l-2.819,0.25l-0.098-1.103L198.348,268.094z"/>
	<path d="M191.766,269.554c-0.186,0.006-0.338,0.026-0.457,0.061s-0.217,0.079-0.288,0.136c-0.071,0.055-0.12,0.12-0.146,0.194
		c-0.025,0.074-0.036,0.155-0.034,0.246c0.006,0.19,0.102,0.348,0.284,0.468c0.185,0.122,0.499,0.249,0.942,0.382
		c0.193,0.062,0.387,0.134,0.58,0.215c0.194,0.081,0.369,0.187,0.525,0.313c0.156,0.128,0.285,0.284,0.385,0.471
		c0.104,0.186,0.158,0.413,0.166,0.684c0.008,0.27-0.035,0.515-0.129,0.734c-0.096,0.22-0.233,0.409-0.414,0.566
		c-0.182,0.158-0.404,0.281-0.666,0.371s-0.559,0.139-0.891,0.149c-0.394,0.013-0.736-0.02-1.025-0.095
		c-0.291-0.076-0.529-0.162-0.718-0.258l0.349-1.05c0.166,0.079,0.35,0.148,0.551,0.207c0.202,0.059,0.444,0.084,0.725,0.075
		c0.316-0.01,0.541-0.061,0.676-0.152s0.2-0.227,0.195-0.406c-0.004-0.107-0.031-0.197-0.086-0.268
		c-0.052-0.072-0.125-0.137-0.22-0.192s-0.204-0.106-0.326-0.151c-0.122-0.043-0.258-0.089-0.405-0.135
		c-0.307-0.104-0.575-0.206-0.803-0.31c-0.23-0.103-0.42-0.226-0.574-0.367c-0.153-0.142-0.27-0.31-0.35-0.505
		c-0.079-0.194-0.123-0.433-0.131-0.715c-0.017-0.545,0.162-0.975,0.535-1.287c0.374-0.313,0.945-0.481,1.717-0.505
		c0.258-0.008,0.493,0,0.703,0.025c0.209,0.024,0.395,0.057,0.556,0.097s0.302,0.084,0.419,0.131s0.215,0.092,0.295,0.135
		l-0.34,1.059c-0.178-0.091-0.395-0.17-0.654-0.238C192.453,269.57,192.139,269.543,191.766,269.554z"/>
	<path d="M186.26,274.41l-1.316-0.049l0.216-5.85l1.316,0.049L186.26,274.41z"/>
	<path d="M179.974,268.129c0.316,0.701,0.663,1.396,1.042,2.086c0.38,0.689,0.79,1.346,1.233,1.968l0.341-3.819l1.296,0.116
		l-0.522,5.83l-1.068-0.096c-0.169-0.202-0.354-0.447-0.553-0.736c-0.2-0.29-0.402-0.598-0.608-0.924
		c-0.206-0.326-0.408-0.664-0.61-1.013c-0.201-0.35-0.388-0.684-0.563-1.006l-0.308,3.441l-1.304-0.116l0.522-5.831L179.974,268.129
		z"/>
	<path d="M171.803,266.859c0.246,0.729,0.525,1.454,0.837,2.178c0.311,0.723,0.656,1.415,1.036,2.076l0.708-3.769l1.279,0.24
		l-1.082,5.753l-1.054-0.197c-0.148-0.218-0.309-0.479-0.479-0.787c-0.172-0.307-0.344-0.633-0.518-0.978
		c-0.172-0.345-0.342-0.7-0.508-1.067c-0.167-0.366-0.321-0.718-0.464-1.054l-0.638,3.396l-1.288-0.242l1.082-5.753L171.803,266.859
		z"/>
	<path d="M167.3,265.679c0.398,0.104,0.727,0.25,0.985,0.438c0.261,0.187,0.457,0.404,0.595,0.652
		c0.135,0.247,0.212,0.521,0.23,0.819c0.019,0.299-0.016,0.614-0.103,0.947l-0.921,3.522l-1.275-0.333l0.893-3.417
		c0.061-0.229,0.086-0.431,0.076-0.604c-0.01-0.174-0.047-0.323-0.111-0.448c-0.063-0.124-0.153-0.225-0.27-0.302
		c-0.117-0.077-0.251-0.135-0.404-0.176c-0.311-0.081-0.588-0.051-0.831,0.089c-0.243,0.141-0.425,0.438-0.544,0.897l-0.894,3.416
		l-1.274-0.334l0.921-3.521c0.087-0.334,0.213-0.626,0.378-0.879c0.165-0.254,0.369-0.456,0.612-0.605
		c0.243-0.148,0.525-0.238,0.848-0.271C166.534,265.537,166.897,265.574,167.3,265.679z"/>
	<path d="M160.426,269.896c-0.035-0.21-0.072-0.465-0.108-0.766c-0.036-0.302-0.07-0.626-0.102-0.974
		c-0.032-0.349-0.061-0.702-0.085-1.062c-0.025-0.36-0.048-0.699-0.07-1.017c-0.213,0.236-0.439,0.489-0.683,0.757
		c-0.242,0.268-0.482,0.528-0.723,0.781c-0.239,0.254-0.467,0.488-0.682,0.703s-0.401,0.394-0.558,0.535l-1.133-0.393
		c0.074-0.385,0.167-0.813,0.28-1.284c0.112-0.47,0.236-0.958,0.371-1.462c0.136-0.504,0.275-1.009,0.417-1.514
		c0.142-0.506,0.278-0.98,0.408-1.424l1.213,0.42c-0.17,0.543-0.352,1.136-0.545,1.777c-0.191,0.644-0.373,1.296-0.542,1.959
		c0.172-0.191,0.366-0.401,0.577-0.633c0.211-0.23,0.421-0.461,0.629-0.693c0.208-0.231,0.41-0.453,0.601-0.663
		c0.193-0.211,0.357-0.391,0.492-0.54l0.871,0.301c0.014,0.201,0.031,0.444,0.053,0.729c0.02,0.285,0.041,0.582,0.063,0.894
		c0.02,0.312,0.042,0.623,0.066,0.935c0.024,0.312,0.045,0.597,0.064,0.854c0.276-0.625,0.536-1.25,0.782-1.875
		c0.246-0.623,0.47-1.202,0.672-1.733l1.213,0.419c-0.171,0.43-0.359,0.887-0.56,1.371c-0.2,0.484-0.402,0.968-0.607,1.448
		c-0.205,0.479-0.409,0.939-0.611,1.38c-0.203,0.438-0.395,0.833-0.575,1.182L160.426,269.896z"/>
	<path d="M156.778,262.344l-2.313,5.377l-3.631-1.562l0.438-1.017l2.421,1.042l0.454-1.056l-2.149-0.925l0.427-0.993l2.149,0.925
		l0.557-1.296l-2.598-1.118l0.438-1.017L156.778,262.344z"/>
	<path d="M147.975,264.84c-0.783-0.396-1.313-0.84-1.59-1.329c-0.276-0.49-0.264-1.028,0.033-1.616
		c0.186-0.368,0.42-0.623,0.705-0.766c0.284-0.145,0.617-0.201,1-0.171c-0.04-0.185-0.075-0.39-0.105-0.616
		c-0.03-0.228-0.055-0.461-0.076-0.701c-0.021-0.241-0.033-0.487-0.038-0.739c-0.006-0.251-0.005-0.496,0.001-0.732l1.314,0.665
		c0.009,0.219,0.02,0.441,0.028,0.667c0.01,0.226,0.023,0.448,0.043,0.666c0.019,0.218,0.042,0.427,0.068,0.626
		c0.026,0.199,0.058,0.385,0.098,0.557l0.581,0.294l0.964-1.907l1.176,0.595l-2.604,5.147c-0.281-0.079-0.564-0.178-0.849-0.296
		C148.441,265.063,148.192,264.949,147.975,264.84z M148.414,263.804c0.086,0.043,0.165,0.079,0.235,0.108s0.136,0.057,0.199,0.082
		l0.717-1.416l-0.331-0.169c-0.443-0.224-0.788-0.328-1.034-0.313c-0.247,0.014-0.438,0.153-0.573,0.42
		c-0.13,0.256-0.125,0.486,0.014,0.693C147.781,263.414,148.039,263.613,148.414,263.804z"/>
	<path d="M144.351,262.847l-1.146-0.651l2.892-5.09l1.146,0.651L144.351,262.847z"/>
	<path d="M143.085,256.465c-0.157-0.099-0.294-0.167-0.415-0.205c-0.119-0.038-0.223-0.054-0.314-0.047
		c-0.09,0.006-0.167,0.032-0.229,0.08c-0.063,0.046-0.119,0.108-0.167,0.184c-0.102,0.162-0.109,0.346-0.025,0.548
		c0.086,0.204,0.275,0.484,0.57,0.842c0.126,0.159,0.248,0.327,0.364,0.503c0.115,0.175,0.202,0.359,0.26,0.553
		c0.059,0.192,0.079,0.395,0.059,0.605s-0.101,0.43-0.245,0.659c-0.144,0.229-0.316,0.407-0.518,0.538
		c-0.2,0.129-0.42,0.209-0.658,0.238c-0.239,0.03-0.492,0.01-0.759-0.062c-0.269-0.072-0.542-0.196-0.825-0.373
		c-0.333-0.209-0.599-0.426-0.798-0.65c-0.197-0.225-0.348-0.429-0.452-0.613l0.875-0.679c0.094,0.159,0.208,0.318,0.343,0.48
		c0.134,0.16,0.321,0.316,0.56,0.466c0.267,0.168,0.482,0.251,0.645,0.251c0.164,0,0.293-0.077,0.389-0.229
		c0.057-0.091,0.083-0.181,0.08-0.271c-0.004-0.088-0.03-0.183-0.078-0.282c-0.047-0.1-0.109-0.201-0.186-0.307
		c-0.077-0.104-0.165-0.218-0.26-0.339c-0.199-0.257-0.363-0.491-0.496-0.705c-0.132-0.212-0.223-0.42-0.271-0.623
		s-0.052-0.408-0.008-0.613c0.042-0.207,0.139-0.43,0.288-0.667c0.291-0.463,0.678-0.72,1.162-0.771
		c0.485-0.052,1.054,0.128,1.708,0.538c0.219,0.139,0.41,0.275,0.569,0.412c0.16,0.138,0.295,0.268,0.407,0.391
		c0.113,0.124,0.205,0.238,0.274,0.342c0.071,0.104,0.128,0.197,0.17,0.277l-0.872,0.689c-0.097-0.175-0.233-0.361-0.409-0.562
		C143.646,256.862,143.4,256.663,143.085,256.465z"/>
	<path d="M137.852,251.673c-0.11,0.533-0.235,1.078-0.374,1.637s-0.283,1.105-0.434,1.642c-0.149,0.535-0.298,1.044-0.448,1.523
		c-0.149,0.481-0.287,0.907-0.412,1.278l-1.158-0.878c0.117-0.336,0.24-0.7,0.37-1.093c0.129-0.392,0.256-0.785,0.38-1.179
		c0.123-0.393,0.241-0.771,0.354-1.131c0.114-0.36,0.201-0.679,0.265-0.955c-0.242,0.139-0.523,0.311-0.842,0.515
		c-0.319,0.204-0.65,0.419-0.997,0.645c-0.345,0.226-0.688,0.454-1.032,0.684c-0.342,0.231-0.661,0.448-0.954,0.654l-1.119-0.848
		c0.331-0.219,0.707-0.464,1.128-0.737c0.421-0.274,0.869-0.556,1.343-0.847c0.474-0.29,0.962-0.579,1.46-0.865
		c0.5-0.285,0.989-0.554,1.469-0.804L137.852,251.673z"/>
	<path d="M130.729,253.517l-1.008-0.849l3.766-4.48l1.009,0.848L130.729,253.517z"/>
	<path d="M127.208,250.534c-0.644-0.597-1.032-1.169-1.163-1.716c-0.129-0.547,0.029-1.062,0.476-1.546
		c0.28-0.302,0.577-0.481,0.889-0.542c0.312-0.06,0.649-0.022,1.009,0.111c0.012-0.188,0.035-0.396,0.069-0.621
		c0.033-0.228,0.072-0.459,0.12-0.695c0.046-0.237,0.103-0.478,0.167-0.721c0.063-0.244,0.132-0.479,0.203-0.705l1.08,1.002
		c-0.051,0.213-0.103,0.43-0.157,0.648c-0.051,0.22-0.1,0.438-0.141,0.652c-0.041,0.215-0.077,0.422-0.107,0.621
		c-0.03,0.198-0.049,0.387-0.058,0.562l0.477,0.442l1.453-1.568l0.966,0.896l-3.92,4.233c-0.25-0.154-0.494-0.327-0.734-0.52
		C127.595,250.877,127.385,250.699,127.208,250.534z M127.917,249.658c0.07,0.064,0.134,0.121,0.194,0.168
		c0.059,0.049,0.117,0.093,0.17,0.135l1.078-1.165l-0.272-0.253c-0.364-0.336-0.667-0.532-0.908-0.587
		c-0.24-0.054-0.463,0.028-0.666,0.247c-0.195,0.211-0.254,0.434-0.178,0.671C127.413,249.11,127.606,249.371,127.917,249.658z"/>
	<path d="M128.46,243.559l-4.235,4.041l-2.729-2.86l0.801-0.763l1.819,1.906l0.831-0.793l-1.615-1.693l0.781-0.746l1.617,1.693
		l1.02-0.975l-1.953-2.047l0.8-0.764L128.46,243.559z"/>
	<path d="M123.207,239.315c-0.12-0.142-0.231-0.249-0.333-0.321c-0.102-0.072-0.196-0.118-0.285-0.14
		c-0.088-0.021-0.168-0.019-0.243,0.007c-0.074,0.026-0.146,0.068-0.214,0.127c-0.146,0.124-0.208,0.295-0.188,0.515
		c0.021,0.22,0.117,0.544,0.29,0.974c0.072,0.189,0.137,0.385,0.195,0.588c0.057,0.202,0.084,0.404,0.083,0.605
		c-0.002,0.202-0.044,0.4-0.126,0.596s-0.226,0.38-0.432,0.555c-0.206,0.176-0.424,0.295-0.655,0.357
		c-0.231,0.063-0.465,0.073-0.701,0.03c-0.236-0.044-0.471-0.14-0.705-0.288c-0.233-0.149-0.457-0.351-0.672-0.604
		c-0.255-0.301-0.444-0.588-0.565-0.861s-0.205-0.514-0.248-0.721l1.038-0.383c0.041,0.18,0.103,0.366,0.182,0.561
		c0.081,0.193,0.211,0.398,0.394,0.612c0.204,0.241,0.385,0.385,0.541,0.435c0.155,0.048,0.302,0.014,0.439-0.103
		c0.082-0.069,0.134-0.147,0.156-0.233c0.024-0.086,0.028-0.184,0.013-0.292c-0.015-0.109-0.044-0.226-0.085-0.349
		c-0.042-0.124-0.091-0.258-0.147-0.402c-0.111-0.305-0.197-0.578-0.26-0.82c-0.062-0.243-0.086-0.469-0.071-0.678
		c0.015-0.208,0.074-0.404,0.177-0.588c0.103-0.183,0.262-0.365,0.476-0.549c0.417-0.354,0.864-0.481,1.342-0.385
		c0.476,0.097,0.965,0.439,1.464,1.027c0.168,0.197,0.307,0.386,0.418,0.564c0.112,0.179,0.202,0.344,0.272,0.495
		c0.07,0.152,0.123,0.288,0.158,0.409c0.037,0.12,0.063,0.226,0.08,0.314l-1.039,0.396c-0.04-0.195-0.113-0.415-0.222-0.659
		S123.448,239.599,123.207,239.315z"/>
	<path d="M115.976,238.043l-0.784-1.059l4.705-3.484l0.784,1.06L115.976,238.043z"/>
	<path d="M116.955,229.211c-0.351,0.686-0.677,1.391-0.979,2.117s-0.558,1.458-0.767,2.191l3.197-2.119l0.718,1.084l-4.879,3.235
		l-0.591-0.895c0.052-0.258,0.128-0.555,0.229-0.892c0.1-0.338,0.214-0.688,0.34-1.053c0.127-0.365,0.264-0.733,0.41-1.108
		c0.148-0.375,0.292-0.73,0.434-1.067l-2.879,1.91l-0.725-1.092l4.879-3.235L116.955,229.211z"/>
	<path d="M112.844,222.049c-0.414,0.648-0.807,1.32-1.177,2.015c-0.37,0.694-0.694,1.397-0.974,2.107l3.385-1.803l0.612,1.148
		l-5.167,2.751l-0.504-0.946c0.075-0.252,0.181-0.54,0.313-0.866c0.134-0.326,0.28-0.664,0.441-1.015
		c0.162-0.351,0.332-0.705,0.515-1.064c0.183-0.357,0.36-0.698,0.533-1.021l-3.05,1.624l-0.615-1.155l5.167-2.752L112.844,222.049z"
		/>
	<path d="M110.956,217.795c0.168,0.376,0.26,0.724,0.274,1.043c0.016,0.319-0.03,0.609-0.14,0.871
		c-0.108,0.261-0.274,0.492-0.496,0.692c-0.222,0.2-0.489,0.37-0.804,0.51l-3.326,1.479l-0.536-1.205l3.227-1.434
		c0.217-0.097,0.389-0.202,0.519-0.318c0.131-0.117,0.225-0.238,0.281-0.366c0.058-0.127,0.081-0.26,0.067-0.399
		c-0.012-0.14-0.05-0.281-0.115-0.426c-0.13-0.293-0.325-0.49-0.587-0.594c-0.262-0.102-0.608-0.058-1.041,0.135l-3.226,1.435
		l-0.535-1.204l3.327-1.479c0.315-0.14,0.621-0.224,0.923-0.253c0.301-0.029,0.586,0.005,0.854,0.101
		c0.268,0.097,0.515,0.262,0.742,0.494C110.589,217.108,110.788,217.414,110.956,217.795z"/>
	<path d="M103.368,215.045c0.142-0.158,0.319-0.345,0.532-0.562c0.213-0.216,0.446-0.444,0.697-0.687
		c0.252-0.242,0.511-0.485,0.777-0.729s0.516-0.474,0.751-0.688c-0.317-0.02-0.657-0.04-1.017-0.062
		c-0.361-0.022-0.715-0.048-1.062-0.078c-0.348-0.029-0.672-0.061-0.976-0.095c-0.301-0.034-0.556-0.067-0.765-0.102l-0.401-1.131
		c0.349-0.183,0.742-0.377,1.179-0.583c0.438-0.205,0.896-0.412,1.375-0.621c0.479-0.209,0.961-0.415,1.442-0.618
		c0.484-0.205,0.94-0.395,1.368-0.569l0.428,1.21c-0.53,0.206-1.106,0.434-1.729,0.684c-0.622,0.251-1.244,0.517-1.868,0.797
		c0.256,0.017,0.542,0.036,0.854,0.057c0.313,0.021,0.624,0.041,0.936,0.061c0.312,0.019,0.609,0.037,0.894,0.057
		c0.285,0.02,0.528,0.035,0.729,0.047l0.308,0.868c-0.149,0.138-0.328,0.302-0.537,0.496c-0.209,0.194-0.43,0.396-0.66,0.605
		c-0.229,0.211-0.46,0.423-0.689,0.636c-0.23,0.213-0.438,0.406-0.627,0.582c0.661-0.175,1.312-0.36,1.953-0.558
		c0.642-0.196,1.232-0.383,1.774-0.557l0.429,1.21c-0.443,0.134-0.916,0.272-1.42,0.418c-0.504,0.146-1.007,0.289-1.511,0.428
		c-0.503,0.14-0.99,0.268-1.459,0.383s-0.898,0.211-1.283,0.288L103.368,215.045z"/>
	<path d="M106.995,207.477l-5.646,1.545l-1.043-3.812l1.067-0.293l0.695,2.543l1.109-0.304l-0.617-2.257l1.042-0.285l0.617,2.257
		l1.362-0.372l-0.747-2.73l1.066-0.292L106.995,207.477z"/>
	<path d="M99.554,202.159c-0.179-0.86-0.163-1.552,0.047-2.073c0.211-0.521,0.64-0.849,1.284-0.982
		c0.403-0.084,0.748-0.06,1.037,0.073c0.291,0.132,0.542,0.357,0.758,0.675c0.12-0.146,0.258-0.301,0.417-0.467
		c0.158-0.164,0.325-0.33,0.5-0.496c0.176-0.166,0.36-0.33,0.554-0.49c0.194-0.161,0.386-0.312,0.574-0.456l0.301,1.442
		c-0.165,0.145-0.333,0.29-0.504,0.438c-0.171,0.148-0.335,0.298-0.494,0.45c-0.157,0.15-0.307,0.299-0.447,0.443
		c-0.139,0.145-0.264,0.286-0.374,0.424l0.133,0.637l2.093-0.435l0.268,1.29l-5.648,1.175c-0.114-0.27-0.213-0.553-0.297-0.849
		C99.67,202.662,99.604,202.396,99.554,202.159z M100.639,201.855c0.02,0.094,0.04,0.177,0.061,0.251
		c0.021,0.072,0.042,0.142,0.06,0.207l1.555-0.324l-0.076-0.363c-0.102-0.485-0.233-0.82-0.398-1.005
		c-0.165-0.184-0.394-0.245-0.687-0.185c-0.281,0.059-0.458,0.206-0.532,0.443C100.547,201.116,100.553,201.442,100.639,201.855z"/>
	<path d="M98.85,198.075l-0.206-1.302l5.781-0.914l0.206,1.302L98.85,198.075z"/>
	<path d="M103.05,193.124c-0.021-0.185-0.054-0.335-0.098-0.452s-0.097-0.209-0.159-0.275c-0.061-0.066-0.13-0.109-0.206-0.13
		c-0.076-0.02-0.159-0.024-0.249-0.014c-0.189,0.021-0.338,0.129-0.444,0.322c-0.105,0.192-0.205,0.517-0.301,0.97
		c-0.045,0.197-0.102,0.396-0.167,0.597c-0.064,0.2-0.155,0.383-0.269,0.549s-0.259,0.308-0.437,0.424
		c-0.177,0.116-0.398,0.19-0.667,0.22c-0.268,0.031-0.516,0.008-0.743-0.068c-0.227-0.076-0.427-0.197-0.598-0.365
		c-0.173-0.168-0.314-0.378-0.426-0.633c-0.111-0.253-0.185-0.545-0.222-0.875c-0.046-0.392-0.042-0.735,0.01-1.029
		c0.051-0.296,0.117-0.542,0.197-0.737l1.074,0.261c-0.065,0.172-0.119,0.36-0.16,0.566c-0.042,0.206-0.047,0.449-0.016,0.729
		c0.035,0.313,0.105,0.533,0.207,0.661c0.103,0.127,0.243,0.181,0.422,0.16c0.106-0.012,0.194-0.048,0.26-0.105
		c0.068-0.059,0.125-0.138,0.172-0.237c0.05-0.098,0.09-0.211,0.124-0.336c0.034-0.127,0.068-0.265,0.102-0.416
		c0.078-0.314,0.158-0.59,0.243-0.826c0.083-0.236,0.189-0.438,0.318-0.602c0.129-0.165,0.288-0.295,0.475-0.391
		c0.187-0.095,0.422-0.158,0.702-0.189c0.542-0.062,0.985,0.08,1.327,0.428c0.344,0.346,0.558,0.902,0.645,1.67
		c0.03,0.257,0.041,0.49,0.033,0.701c-0.007,0.211-0.024,0.398-0.05,0.562s-0.059,0.308-0.096,0.428
		c-0.037,0.121-0.074,0.223-0.11,0.306l-1.083-0.251c0.076-0.185,0.137-0.408,0.184-0.671
		C103.09,193.81,103.093,193.494,103.05,193.124z"/>
	<path d="M103.53,186.048c-0.485,0.245-0.99,0.488-1.513,0.728c-0.522,0.24-1.04,0.469-1.552,0.686
		c-0.513,0.218-1.003,0.418-1.472,0.601c-0.469,0.184-0.888,0.342-1.256,0.476l-0.037-1.453c0.336-0.117,0.699-0.248,1.085-0.393
		c0.387-0.144,0.773-0.291,1.157-0.439c0.385-0.148,0.754-0.292,1.105-0.428c0.352-0.137,0.656-0.268,0.912-0.39
		c-0.26-0.104-0.569-0.216-0.928-0.337c-0.358-0.122-0.733-0.248-1.125-0.377c-0.392-0.129-0.785-0.256-1.178-0.379
		c-0.394-0.125-0.763-0.237-1.107-0.339l-0.035-1.403c0.376,0.122,0.802,0.262,1.279,0.42c0.477,0.159,0.977,0.333,1.5,0.522
		c0.524,0.189,1.053,0.39,1.587,0.602c0.535,0.212,1.05,0.428,1.545,0.646L103.53,186.048z"/>
	<path d="M97.645,181.629l0.033-1.317l5.853,0.148l-0.034,1.317L97.645,181.629z"/>
	<path d="M97.782,177.01c0.063-0.877,0.27-1.536,0.616-1.979c0.345-0.443,0.848-0.64,1.505-0.592
		c0.409,0.03,0.735,0.148,0.977,0.355c0.241,0.207,0.421,0.493,0.542,0.858c0.155-0.107,0.331-0.218,0.529-0.334
		c0.197-0.115,0.403-0.229,0.617-0.34c0.215-0.111,0.437-0.218,0.668-0.319c0.231-0.102,0.457-0.195,0.677-0.28l-0.109,1.469
		c-0.199,0.093-0.399,0.188-0.605,0.283c-0.204,0.095-0.403,0.194-0.597,0.296c-0.194,0.102-0.379,0.203-0.552,0.304
		c-0.175,0.1-0.333,0.201-0.477,0.305l-0.047,0.648l2.131,0.157l-0.097,1.314l-5.755-0.425c-0.034-0.29-0.052-0.589-0.052-0.897
		C97.754,177.525,97.764,177.251,97.782,177.01z M98.907,177.016c-0.006,0.096-0.011,0.182-0.01,0.258
		c-0.001,0.077,0,0.148,0.001,0.216l1.584,0.117l0.027-0.37c0.037-0.495,0-0.853-0.106-1.076c-0.108-0.222-0.311-0.344-0.609-0.367
		c-0.286-0.021-0.498,0.072-0.635,0.279C99.022,176.281,98.939,176.595,98.907,177.016z"/>
	<path d="M104.014,173.626l-5.8-0.791l0.534-3.917l1.098,0.149l-0.356,2.611l1.139,0.155l0.315-2.318l1.072,0.146l-0.316,2.318
		l1.397,0.19l0.383-2.804l1.096,0.149L104.014,173.626z"/>
	<path d="M104.052,166.893c0.036-0.182,0.049-0.336,0.042-0.461c-0.008-0.125-0.03-0.228-0.068-0.31
		c-0.04-0.082-0.091-0.144-0.158-0.186s-0.144-0.07-0.232-0.088c-0.188-0.037-0.362,0.021-0.521,0.174
		c-0.157,0.153-0.351,0.431-0.579,0.833c-0.103,0.175-0.215,0.349-0.337,0.52s-0.263,0.319-0.422,0.443
		c-0.159,0.124-0.341,0.214-0.544,0.272c-0.204,0.058-0.438,0.061-0.703,0.009c-0.266-0.052-0.496-0.147-0.688-0.289
		c-0.194-0.142-0.347-0.317-0.46-0.529s-0.187-0.455-0.214-0.73c-0.03-0.276-0.014-0.576,0.051-0.903
		c0.075-0.387,0.182-0.713,0.319-0.979c0.138-0.266,0.275-0.48,0.41-0.643l0.947,0.572c-0.114,0.144-0.222,0.308-0.324,0.492
		c-0.102,0.184-0.179,0.414-0.234,0.69c-0.061,0.31-0.061,0.54-0.002,0.692c0.06,0.152,0.178,0.246,0.355,0.28
		c0.104,0.02,0.198,0.013,0.279-0.023c0.082-0.035,0.16-0.094,0.235-0.173c0.076-0.08,0.149-0.174,0.22-0.284
		s0.144-0.232,0.221-0.366c0.17-0.276,0.33-0.516,0.48-0.715c0.151-0.201,0.313-0.36,0.485-0.478
		c0.172-0.119,0.363-0.195,0.57-0.229c0.208-0.034,0.45-0.024,0.726,0.029c0.536,0.104,0.916,0.374,1.139,0.808
		c0.221,0.434,0.259,1.029,0.11,1.786c-0.049,0.254-0.109,0.48-0.179,0.68c-0.07,0.198-0.143,0.372-0.219,0.521
		c-0.074,0.149-0.147,0.275-0.22,0.379c-0.072,0.104-0.137,0.19-0.197,0.259l-0.957-0.565c0.128-0.153,0.254-0.348,0.377-0.585
		C103.883,167.559,103.98,167.258,104.052,166.893z"/>
	<path d="M100.527,160.462l0.337-1.274l5.658,1.496l-0.337,1.274L100.527,160.462z"/>
	<path d="M108.038,155.69c-0.754,0.155-1.509,0.341-2.265,0.56c-0.756,0.219-1.486,0.476-2.19,0.771l3.652,1.171l-0.397,1.239
		l-5.574-1.788l0.327-1.021c0.234-0.12,0.513-0.247,0.841-0.378c0.325-0.132,0.67-0.262,1.035-0.391
		c0.363-0.129,0.737-0.254,1.122-0.373c0.384-0.12,0.75-0.229,1.103-0.33l-3.291-1.055l0.4-1.247l5.574,1.788L108.038,155.69z"/>
	<path d="M111.068,147.995c-0.765,0.081-1.534,0.194-2.308,0.339c-0.773,0.145-1.525,0.33-2.254,0.556l3.521,1.518l-0.514,1.195
		l-5.376-2.318l0.425-0.984c0.244-0.098,0.535-0.196,0.873-0.296c0.337-0.1,0.693-0.196,1.067-0.29s0.758-0.18,1.153-0.262
		c0.393-0.081,0.77-0.155,1.129-0.221l-3.172-1.368l0.518-1.202l5.376,2.317L111.068,147.995z"/>
	<path d="M113.207,143.88c-0.19,0.365-0.404,0.653-0.645,0.865c-0.24,0.212-0.496,0.356-0.768,0.434s-0.556,0.093-0.851,0.044
		c-0.294-0.048-0.594-0.152-0.899-0.31l-3.231-1.677l0.606-1.169l3.134,1.626c0.21,0.109,0.401,0.178,0.574,0.207
		c0.172,0.029,0.326,0.026,0.461-0.008c0.134-0.035,0.253-0.1,0.354-0.197c0.102-0.096,0.188-0.215,0.261-0.355
		c0.147-0.285,0.181-0.562,0.098-0.83c-0.084-0.268-0.335-0.511-0.754-0.729l-3.135-1.626l0.606-1.169l3.232,1.677
		c0.304,0.159,0.562,0.346,0.773,0.563c0.21,0.217,0.362,0.46,0.453,0.73c0.092,0.27,0.118,0.565,0.078,0.887
		C113.514,143.164,113.398,143.51,113.207,143.88z"/>
	<path d="M110.619,136.241c0.211,0.012,0.469,0.034,0.771,0.066c0.302,0.032,0.626,0.07,0.973,0.117s0.697,0.097,1.054,0.153
		c0.357,0.057,0.692,0.109,1.006,0.159c-0.182-0.26-0.378-0.539-0.584-0.833c-0.208-0.296-0.408-0.589-0.602-0.88
		c-0.194-0.29-0.372-0.564-0.533-0.821c-0.162-0.257-0.295-0.479-0.399-0.663l0.635-1.018c0.359,0.158,0.756,0.343,1.19,0.558
		c0.434,0.214,0.881,0.443,1.343,0.688c0.461,0.244,0.922,0.492,1.384,0.743c0.461,0.251,0.894,0.489,1.297,0.713l-0.679,1.09
		c-0.491-0.287-1.029-0.595-1.613-0.926c-0.583-0.33-1.179-0.651-1.788-0.965c0.147,0.212,0.309,0.446,0.487,0.704
		c0.179,0.257,0.357,0.513,0.536,0.769c0.18,0.255,0.351,0.499,0.514,0.734c0.162,0.234,0.301,0.434,0.417,0.6l-0.487,0.781
		c-0.2-0.03-0.441-0.067-0.722-0.11c-0.282-0.042-0.577-0.089-0.886-0.138c-0.308-0.048-0.616-0.096-0.926-0.143
		c-0.309-0.046-0.59-0.089-0.846-0.128c0.549,0.409,1.1,0.801,1.654,1.18c0.553,0.378,1.066,0.725,1.541,1.04l-0.68,1.09
		c-0.38-0.264-0.784-0.547-1.212-0.85c-0.428-0.304-0.854-0.608-1.275-0.915c-0.424-0.307-0.827-0.608-1.209-0.903
		c-0.383-0.295-0.725-0.569-1.025-0.822L110.619,136.241z"/>
	<path d="M118.801,134.352l-4.727-3.455l2.334-3.191l0.892,0.653l-1.554,2.128l0.928,0.678l1.38-1.89l0.873,0.639l-1.38,1.889
		l1.138,0.832l1.67-2.285l0.895,0.653L118.801,134.352z"/>
	<path d="M118.332,125.21c0.562-0.675,1.113-1.093,1.651-1.253c0.539-0.16,1.062-0.029,1.569,0.392
		c0.315,0.263,0.513,0.549,0.589,0.857c0.076,0.31,0.058,0.646-0.057,1.013c0.189,0.003,0.396,0.015,0.624,0.036
		c0.229,0.021,0.462,0.048,0.701,0.082c0.24,0.034,0.482,0.076,0.729,0.128c0.247,0.051,0.484,0.106,0.714,0.165l-0.941,1.133
		c-0.216-0.04-0.435-0.08-0.658-0.121c-0.222-0.042-0.441-0.077-0.658-0.107c-0.218-0.03-0.426-0.054-0.626-0.073
		c-0.2-0.02-0.388-0.028-0.564-0.028l-0.415,0.5l1.644,1.366l-0.842,1.014l-4.438-3.688c0.14-0.256,0.299-0.51,0.478-0.761
		C118.011,125.614,118.177,125.396,118.332,125.21z M119.245,125.87c-0.061,0.073-0.113,0.141-0.158,0.203
		c-0.044,0.062-0.085,0.121-0.125,0.177l1.221,1.015l0.239-0.286c0.316-0.381,0.496-0.693,0.537-0.937
		c0.041-0.244-0.053-0.461-0.283-0.652c-0.22-0.184-0.447-0.23-0.678-0.142C119.766,125.338,119.515,125.544,119.245,125.87z"/>
	<path d="M121.069,122.136l0.89-0.973l4.318,3.952l-0.89,0.972L121.069,122.136z"/>
	<path d="M127.573,122.323c0.131-0.131,0.229-0.251,0.292-0.358c0.064-0.107,0.103-0.206,0.117-0.296
		c0.013-0.089,0.004-0.17-0.028-0.242c-0.031-0.072-0.079-0.139-0.143-0.203c-0.136-0.135-0.312-0.184-0.529-0.146
		c-0.217,0.038-0.532,0.161-0.946,0.368c-0.184,0.088-0.373,0.168-0.57,0.243c-0.196,0.073-0.396,0.118-0.597,0.132
		c-0.202,0.014-0.402-0.012-0.603-0.078c-0.202-0.065-0.398-0.193-0.589-0.385c-0.19-0.19-0.328-0.398-0.41-0.623
		c-0.082-0.226-0.111-0.457-0.086-0.696c0.024-0.239,0.1-0.48,0.229-0.726c0.13-0.245,0.312-0.485,0.547-0.72
		c0.278-0.279,0.55-0.491,0.812-0.634c0.262-0.143,0.496-0.244,0.698-0.305l0.467,1.003c-0.175,0.056-0.356,0.132-0.543,0.227
		c-0.188,0.096-0.381,0.243-0.58,0.442c-0.223,0.223-0.353,0.415-0.388,0.574c-0.036,0.159,0.011,0.303,0.138,0.43
		c0.076,0.076,0.158,0.121,0.245,0.137c0.088,0.017,0.185,0.012,0.292-0.012s0.222-0.062,0.341-0.114
		c0.119-0.052,0.249-0.111,0.388-0.179c0.294-0.136,0.56-0.244,0.798-0.326c0.236-0.082,0.459-0.124,0.669-0.125
		c0.208-0.002,0.408,0.041,0.6,0.127c0.19,0.088,0.386,0.231,0.585,0.43c0.386,0.386,0.55,0.821,0.494,1.306
		c-0.057,0.483-0.359,0.998-0.904,1.544c-0.182,0.184-0.359,0.338-0.528,0.463c-0.17,0.125-0.326,0.229-0.472,0.311
		c-0.146,0.081-0.277,0.146-0.394,0.191c-0.119,0.046-0.22,0.081-0.308,0.105l-0.479-1.003c0.191-0.056,0.404-0.148,0.639-0.275
		C127.062,122.782,127.31,122.586,127.573,122.323z"/>
</g>
</svg>
